<svg width="303" height="181" viewBox="0 0 303 181" fill="none" xmlns="http://www.w3.org/2000/svg">
<path d="M26.4122 121.447H71.4897V86.6794H26.4122L26.4122 121.447Z" fill="#F5F5F5"/>
<path d="M37.7068 121.202C37.7674 121.202 37.8193 113.451 37.8193 103.894C37.8193 94.3333 37.7674 86.5859 37.7068 86.5859C37.6462 86.5859 37.5942 94.3333 37.5942 103.894C37.5942 113.455 37.6418 121.202 37.7068 121.202Z" fill="#EBEBEB"/>
<path d="M30.2353 117.443H33.6891V113.535H30.2353V117.443Z" fill="#FAFAFA"/>
<path d="M57.7373 86.7677H52.6171V94.1861H57.7373V86.7677Z" fill="#EBEBEB"/>
<path d="M57.7373 113.927H52.6171V121.345H57.7373V113.927Z" fill="#EBEBEB"/>
<path d="M88.6706 121.938H14.2526V179.334H88.6706V121.938Z" fill="#EBEBEB"/>
<path d="M70.025 178.931C69.9427 178.931 69.8778 166.137 69.8778 150.361C69.8778 134.576 69.9427 121.787 70.025 121.787C70.1072 121.787 70.1721 134.576 70.1721 150.361C70.1721 166.137 70.1029 178.931 70.025 178.931Z" fill="#E0E0E0"/>
<path d="M82.3558 166.271H76.6513V172.72H82.3558V166.271Z" fill="#FAFAFA"/>
<path d="M45.4065 122.085H36.9537V134.334H45.4065V122.085Z" fill="#E0E0E0"/>
<path d="M45.4065 166.916H36.9537V179.165H45.4065V166.916Z" fill="#E0E0E0"/>
<path d="M146.81 20.8327C146.81 20.8933 146.326 20.9453 145.728 20.9453C145.131 20.9453 144.646 20.8933 144.646 20.8327C144.646 20.7722 145.131 20.7202 145.728 20.7202C146.326 20.7202 146.81 20.7678 146.81 20.8327Z" fill="#EBEBEB"/>
<path d="M151.139 20.8327C151.139 20.8933 150.654 20.9452 150.057 20.9452C149.459 20.9452 148.974 20.8933 148.974 20.8327C148.974 20.7721 149.459 20.7202 150.057 20.7202C150.654 20.7202 151.139 20.7678 151.139 20.8327Z" fill="#EBEBEB"/>
<path d="M155.467 20.8327C155.467 20.8933 154.982 20.9452 154.385 20.9452C153.787 20.9452 153.303 20.8933 153.303 20.8327C153.303 20.7721 153.787 20.7202 154.385 20.7202C154.982 20.7202 155.467 20.7678 155.467 20.8327Z" fill="#EBEBEB"/>
<path d="M159.795 20.8327C159.795 20.8933 159.31 20.9452 158.713 20.9452C158.115 20.9452 157.631 20.8933 157.631 20.8327C157.631 20.7721 158.115 20.7202 158.713 20.7202C159.31 20.7202 159.795 20.7678 159.795 20.8327Z" fill="#EBEBEB"/>
<path d="M164.123 20.8327C164.123 20.8933 163.638 20.9452 163.041 20.9452C162.444 20.9452 161.959 20.8933 161.959 20.8327C161.959 20.7721 162.444 20.7202 163.041 20.7202C163.638 20.7202 164.123 20.7678 164.123 20.8327Z" fill="#EBEBEB"/>
<path d="M168.451 20.8327C168.451 20.8933 167.966 20.9452 167.369 20.9452C166.772 20.9452 166.287 20.8933 166.287 20.8327C166.287 20.7721 166.772 20.7202 167.369 20.7202C167.966 20.7202 168.451 20.7678 168.451 20.8327Z" fill="#EBEBEB"/>
<path d="M172.779 20.8327C172.779 20.8933 172.295 20.9452 171.697 20.9452C171.1 20.9452 170.615 20.8933 170.615 20.8327C170.615 20.7721 171.1 20.7202 171.697 20.7202C172.295 20.7202 172.779 20.7678 172.779 20.8327Z" fill="#EBEBEB"/>
<path d="M177.107 20.8327C177.107 20.8933 176.623 20.9452 176.025 20.9452C175.428 20.9452 174.943 20.8933 174.943 20.8327C174.943 20.7721 175.428 20.7202 176.025 20.7202C176.623 20.7202 177.107 20.7678 177.107 20.8327Z" fill="#EBEBEB"/>
<path d="M181.436 20.8327C181.436 20.8933 180.951 20.9452 180.354 20.9452C179.756 20.9452 179.271 20.8933 179.271 20.8327C179.271 20.7721 179.756 20.7202 180.354 20.7202C180.951 20.7202 181.436 20.7678 181.436 20.8327Z" fill="#EBEBEB"/>
<path d="M185.764 20.8327C185.764 20.8933 185.279 20.9452 184.682 20.9452C184.084 20.9452 183.6 20.8933 183.6 20.8327C183.6 20.7721 184.084 20.7202 184.682 20.7202C185.279 20.7202 185.764 20.7678 185.764 20.8327Z" fill="#EBEBEB"/>
<path d="M190.092 20.8327C190.092 20.8933 189.607 20.9452 189.01 20.9452C188.413 20.9452 187.928 20.8933 187.928 20.8327C187.928 20.7721 188.413 20.7202 189.01 20.7202C189.607 20.7202 190.092 20.7678 190.092 20.8327Z" fill="#EBEBEB"/>
<path d="M194.42 20.8327C194.42 20.8933 193.935 20.9452 193.338 20.9452C192.741 20.9452 192.256 20.8933 192.256 20.8327C192.256 20.7721 192.741 20.7202 193.338 20.7202C193.935 20.7202 194.42 20.7678 194.42 20.8327Z" fill="#EBEBEB"/>
<path d="M198.748 20.8327C198.748 20.8933 198.263 20.9452 197.666 20.9452C197.069 20.9452 196.584 20.8933 196.584 20.8327C196.584 20.7721 197.069 20.7202 197.666 20.7202C198.263 20.7202 198.748 20.7678 198.748 20.8327Z" fill="#EBEBEB"/>
<path d="M203.076 20.8327C203.076 20.8933 202.591 20.9452 201.994 20.9452C201.397 20.9452 200.912 20.8933 200.912 20.8327C200.912 20.7721 201.397 20.7202 201.994 20.7202C202.591 20.7202 203.076 20.7678 203.076 20.8327Z" fill="#EBEBEB"/>
<path d="M207.404 20.8327C207.404 20.8933 206.92 20.9452 206.322 20.9452C205.725 20.9452 205.24 20.8933 205.24 20.8327C205.24 20.7721 205.725 20.7202 206.322 20.7202C206.92 20.7202 207.404 20.7678 207.404 20.8327Z" fill="#EBEBEB"/>
<path d="M211.732 20.8327C211.732 20.8933 211.248 20.9452 210.65 20.9452C210.053 20.9452 209.568 20.8933 209.568 20.8327C209.568 20.7721 210.053 20.7202 210.65 20.7202C211.248 20.7202 211.732 20.7678 211.732 20.8327Z" fill="#EBEBEB"/>
<path d="M216.061 20.8327C216.061 20.8933 215.576 20.9452 214.979 20.9452C214.381 20.9452 213.897 20.8933 213.897 20.8327C213.897 20.7721 214.381 20.7202 214.979 20.7202C215.576 20.7202 216.061 20.7678 216.061 20.8327Z" fill="#EBEBEB"/>
<path d="M220.389 20.8327C220.389 20.8933 219.904 20.9452 219.307 20.9452C218.709 20.9452 218.225 20.8933 218.225 20.8327C218.225 20.7721 218.709 20.7202 219.307 20.7202C219.904 20.7202 220.389 20.7678 220.389 20.8327Z" fill="#EBEBEB"/>
<path d="M224.717 20.8327C224.717 20.8933 224.232 20.9452 223.635 20.9452C223.038 20.9452 222.553 20.8933 222.553 20.8327C222.553 20.7721 223.038 20.7202 223.635 20.7202C224.232 20.7202 224.717 20.7678 224.717 20.8327Z" fill="#EBEBEB"/>
<path d="M229.045 20.8327C229.045 20.8933 228.56 20.9452 227.963 20.9452C227.366 20.9452 226.881 20.8933 226.881 20.8327C226.881 20.7721 227.366 20.7202 227.963 20.7202C228.56 20.7202 229.045 20.7678 229.045 20.8327Z" fill="#EBEBEB"/>
<path d="M233.373 20.8327C233.373 20.8933 232.888 20.9452 232.291 20.9452C231.694 20.9452 231.209 20.8933 231.209 20.8327C231.209 20.7721 231.694 20.7202 232.291 20.7202C232.888 20.7202 233.373 20.7678 233.373 20.8327Z" fill="#EBEBEB"/>
<path d="M237.701 20.8327C237.701 20.8933 237.217 20.9452 236.619 20.9452C236.022 20.9452 235.537 20.8933 235.537 20.8327C235.537 20.7721 236.022 20.7202 236.619 20.7202C237.217 20.7202 237.701 20.7678 237.701 20.8327Z" fill="#EBEBEB"/>
<path d="M242.029 20.8327C242.029 20.8933 241.545 20.9452 240.947 20.9452C240.35 20.9452 239.865 20.8933 239.865 20.8327C239.865 20.7721 240.35 20.7202 240.947 20.7202C241.545 20.7202 242.029 20.7678 242.029 20.8327Z" fill="#EBEBEB"/>
<path d="M243.138 24.0485C243.077 24.0485 243.025 23.5637 243.025 22.9665C243.025 22.3692 243.077 21.8844 243.138 21.8844C243.198 21.8844 243.25 22.3692 243.25 22.9665C243.25 23.5681 243.198 24.0485 243.138 24.0485Z" fill="#EBEBEB"/>
<path d="M243.138 28.3767C243.077 28.3767 243.025 27.8919 243.025 27.2946C243.025 26.6973 243.077 26.2126 243.138 26.2126C243.198 26.2126 243.25 26.6973 243.25 27.2946C243.25 27.8962 243.198 28.3767 243.138 28.3767Z" fill="#EBEBEB"/>
<path d="M243.138 32.7048C243.077 32.7048 243.025 32.22 243.025 31.6228C243.025 31.0255 243.077 30.5407 243.138 30.5407C243.198 30.5407 243.25 31.0255 243.25 31.6228C243.25 32.2244 243.198 32.7048 243.138 32.7048Z" fill="#EBEBEB"/>
<path d="M243.138 37.0329C243.077 37.0329 243.025 36.5482 243.025 35.9509C243.025 35.3536 243.077 34.8689 243.138 34.8689C243.198 34.8689 243.25 35.3536 243.25 35.9509C243.25 36.5525 243.198 37.0329 243.138 37.0329Z" fill="#EBEBEB"/>
<path d="M243.138 41.3611C243.077 41.3611 243.025 40.8763 243.025 40.279C243.025 39.6818 243.077 39.197 243.138 39.197C243.198 39.197 243.25 39.6818 243.25 40.279C243.25 40.8807 243.198 41.3611 243.138 41.3611Z" fill="#EBEBEB"/>
<path d="M243.982 44.8452C243.982 44.8972 243.622 44.9448 243.138 44.9534L243.029 44.9578V44.8452C243.029 44.763 243.029 44.6851 243.025 44.6072C243.025 44.0099 243.077 43.5251 243.138 43.5251C243.198 43.5251 243.25 44.0099 243.25 44.6072C243.25 44.6851 243.25 44.763 243.246 44.8452L243.138 44.737C243.622 44.75 243.982 44.7933 243.982 44.8452Z" fill="#EBEBEB"/>
<path d="M248.31 44.8452C248.31 44.9058 247.825 44.9577 247.228 44.9577C246.63 44.9577 246.146 44.9058 246.146 44.8452C246.146 44.7846 246.63 44.7327 247.228 44.7327C247.825 44.7327 248.31 44.7846 248.31 44.8452Z" fill="#EBEBEB"/>
<path d="M252.638 44.8452C252.638 44.9058 252.153 44.9577 251.556 44.9577C250.958 44.9577 250.474 44.9058 250.474 44.8452C250.474 44.7846 250.958 44.7327 251.556 44.7327C252.153 44.7327 252.638 44.7846 252.638 44.8452Z" fill="#EBEBEB"/>
<path d="M256.966 44.8452C256.966 44.9058 256.481 44.9577 255.884 44.9577C255.287 44.9577 254.802 44.9058 254.802 44.8452C254.802 44.7846 255.287 44.7327 255.884 44.7327C256.481 44.7327 256.966 44.7846 256.966 44.8452Z" fill="#EBEBEB"/>
<path d="M261.294 44.8452C261.294 44.9058 260.809 44.9577 260.212 44.9577C259.615 44.9577 259.13 44.9058 259.13 44.8452C259.13 44.7846 259.615 44.7327 260.212 44.7327C260.809 44.7327 261.294 44.7846 261.294 44.8452Z" fill="#EBEBEB"/>
<path d="M265.622 44.8452C265.622 44.9058 265.137 44.9577 264.54 44.9577C263.943 44.9577 263.458 44.9058 263.458 44.8452C263.458 44.7846 263.943 44.7327 264.54 44.7327C265.137 44.7327 265.622 44.7846 265.622 44.8452Z" fill="#EBEBEB"/>
<path d="M269.95 44.8452C269.95 44.9058 269.466 44.9577 268.868 44.9577C268.271 44.9577 267.786 44.9058 267.786 44.8452C267.786 44.7846 268.271 44.7327 268.868 44.7327C269.466 44.7327 269.95 44.7846 269.95 44.8452Z" fill="#EBEBEB"/>
<path d="M274.278 44.8452C274.278 44.9058 273.794 44.9577 273.196 44.9577C272.599 44.9577 272.114 44.9058 272.114 44.8452C272.114 44.7846 272.599 44.7327 273.196 44.7327C273.794 44.7327 274.278 44.7846 274.278 44.8452Z" fill="#EBEBEB"/>
<path d="M278.607 44.8452C278.607 44.9058 278.122 44.9577 277.525 44.9577C276.927 44.9577 276.443 44.9058 276.443 44.8452C276.443 44.7846 276.927 44.7327 277.525 44.7327C278.122 44.7327 278.607 44.7846 278.607 44.8452Z" fill="#EBEBEB"/>
<path d="M280.29 47.494C280.23 47.494 280.178 47.0092 280.178 46.412C280.178 45.8147 280.23 45.3299 280.29 45.3299C280.351 45.3299 280.403 45.8147 280.403 46.412C280.403 47.0092 280.351 47.494 280.29 47.494Z" fill="#EBEBEB"/>
<path d="M280.29 51.8221C280.23 51.8221 280.178 51.3374 280.178 50.7401C280.178 50.1428 280.23 49.6581 280.29 49.6581C280.351 49.6581 280.403 50.1428 280.403 50.7401C280.403 51.3374 280.351 51.8221 280.29 51.8221Z" fill="#EBEBEB"/>
<path d="M280.29 56.1503C280.23 56.1503 280.178 55.6655 280.178 55.0682C280.178 54.471 280.23 53.9862 280.29 53.9862C280.351 53.9862 280.403 54.471 280.403 55.0682C280.403 55.6655 280.351 56.1503 280.29 56.1503Z" fill="#EBEBEB"/>
<path d="M280.29 60.4784C280.23 60.4784 280.178 59.9937 280.178 59.3964C280.178 58.7991 280.23 58.3143 280.29 58.3143C280.351 58.3143 280.403 58.7991 280.403 59.3964C280.403 59.9937 280.351 60.4784 280.29 60.4784Z" fill="#EBEBEB"/>
<path d="M280.29 64.8066C280.23 64.8066 280.178 64.3218 280.178 63.7245C280.178 63.1272 280.23 62.6425 280.29 62.6425C280.351 62.6425 280.403 63.1272 280.403 63.7245C280.403 64.3218 280.351 64.8066 280.29 64.8066Z" fill="#EBEBEB"/>
<path d="M280.29 69.1347C280.23 69.1347 280.178 68.6499 280.178 68.0527C280.178 67.4554 280.23 66.9706 280.29 66.9706C280.351 66.9706 280.403 67.4554 280.403 68.0527C280.403 68.6499 280.351 69.1347 280.29 69.1347Z" fill="#EBEBEB"/>
<path d="M280.29 73.4628C280.23 73.4628 280.178 72.9781 280.178 72.3808C280.178 71.7835 280.23 71.2988 280.29 71.2988C280.351 71.2988 280.403 71.7835 280.403 72.3808C280.403 72.9781 280.351 73.4628 280.29 73.4628Z" fill="#EBEBEB"/>
<path d="M280.29 77.791C280.23 77.791 280.178 77.3062 280.178 76.7089C280.178 76.1117 280.23 75.6269 280.29 75.6269C280.351 75.6269 280.403 76.1117 280.403 76.7089C280.403 77.3062 280.351 77.791 280.29 77.791Z" fill="#EBEBEB"/>
<path d="M280.29 82.1191C280.23 82.1191 280.178 81.6344 280.178 81.0371C280.178 80.4398 280.23 79.955 280.29 79.955C280.351 79.955 280.403 80.4398 280.403 81.0371C280.403 81.6344 280.351 82.1191 280.29 82.1191Z" fill="#EBEBEB"/>
<path d="M280.29 86.4473C280.23 86.4473 280.178 85.9625 280.178 85.3652C280.178 84.7679 280.23 84.2832 280.29 84.2832C280.351 84.2832 280.403 84.7679 280.403 85.3652C280.403 85.9625 280.351 86.4473 280.29 86.4473Z" fill="#EBEBEB"/>
<path d="M280.29 90.7754C280.23 90.7754 280.178 90.2906 280.178 89.6934C280.178 89.0961 280.23 88.6113 280.29 88.6113C280.351 88.6113 280.403 89.0961 280.403 89.6934C280.403 90.2906 280.351 90.7754 280.29 90.7754Z" fill="#EBEBEB"/>
<path d="M169.52 28.2166C169.52 28.2166 166.162 26.3555 162.868 34.3019C159.574 42.2484 158.445 46.767 158.445 46.767C158.445 46.767 157.54 48.4463 156.358 47.4898C155.177 46.5289 153.437 43.681 151.61 44.3605C149.715 45.066 149.247 47.282 149.866 50.4286C150.485 53.5794 151.589 60.5261 151.688 61.158C151.784 61.7769 151.502 62.7161 150.589 62.1924C149.68 61.6687 144.279 56.5269 141.993 59.2363C139.708 61.9457 142.876 70.4332 143.205 71.3681C143.534 72.303 143.378 72.7271 142.945 72.9955C142.513 73.2682 140.859 71.3681 139.262 69.9701C137.665 68.5721 135.57 67.2304 134.384 68.9011C133.199 70.576 133.289 77.1245 140.323 87.2221L143.889 91.6887L149.576 90.9226C161.652 88.5421 166.265 83.8937 166.573 81.8638C166.88 79.8339 164.439 79.3449 162.323 79.2453C160.202 79.1458 157.696 79.3622 157.57 78.8644C157.445 78.3667 157.627 77.9555 158.514 77.5097C159.401 77.0639 167.573 73.1556 167.811 69.6195C168.049 66.0834 160.591 66.0315 159.574 65.7761C158.557 65.5208 159.007 64.6465 159.505 64.2699C160.011 63.8847 165.634 59.6518 168.265 57.8167C170.897 55.9816 172.1 54.0642 171.226 52.2377C170.386 50.4805 167.153 51.3202 165.638 51.1903C164.123 51.0605 164.638 49.2253 164.638 49.2253C164.638 49.2253 166.967 45.1872 170.113 37.1845C173.26 29.1817 169.455 28.1819 169.455 28.1819" fill="#EBEBEB"/>
<path d="M144.084 90.5071C146.417 84.6381 149.71 76.5575 153.376 67.6415C157.042 58.7299 160.353 50.6579 162.721 44.8019C163.898 41.8804 164.854 39.513 165.517 37.8639C165.846 37.0502 166.101 36.4183 166.278 35.9769C166.365 35.7691 166.434 35.6046 166.482 35.4878C166.529 35.3796 166.555 35.3233 166.555 35.3233C166.555 35.3233 166.538 35.3839 166.499 35.4964C166.456 35.6176 166.395 35.7821 166.313 35.9942C166.144 36.4357 165.898 37.0762 165.586 37.8942C164.95 39.5433 164.015 41.9194 162.846 44.8539C160.513 50.7228 157.22 58.8035 153.554 67.7151C149.888 76.6311 146.572 84.7031 144.209 90.559" fill="#E0E0E0"/>
<path d="M153.887 48.4463C153.9 48.4419 153.961 48.5761 154.064 48.8185C154.168 49.0652 154.307 49.4201 154.471 49.8659C154.8 50.7575 155.229 51.9953 155.67 53.376C156.099 54.7351 156.488 55.9599 156.787 56.9078C156.921 57.3276 157.038 57.6825 157.129 57.9768C157.211 58.2279 157.25 58.3707 157.237 58.375C157.224 58.3793 157.159 58.2452 157.055 58.0028C156.951 57.7561 156.813 57.3969 156.653 56.9511C156.328 56.0595 155.921 54.813 155.48 53.4323C155.043 52.0776 154.644 50.857 154.337 49.9092C154.199 49.4893 154.082 49.1344 153.987 48.8401C153.913 48.5934 153.874 48.4506 153.887 48.4463Z" fill="#E0E0E0"/>
<path d="M157.774 58.4399C157.756 58.388 160.275 57.3968 163.4 56.2282C166.529 55.0553 169.079 54.1507 169.096 54.1983C169.113 54.2503 166.594 55.2414 163.469 56.41C160.34 57.5829 157.791 58.4918 157.774 58.4399Z" fill="#E0E0E0"/>
<path d="M151.524 71.8745C151.524 71.8615 151.671 71.8398 151.944 71.8182C152.255 71.7922 152.636 71.7663 153.086 71.7316C154.052 71.6581 155.385 71.5455 156.847 71.3767C158.315 71.2079 159.635 71.0088 160.591 70.8574C161.037 70.7881 161.414 70.7275 161.725 70.6799C161.994 70.6409 162.141 70.6236 162.145 70.6366C162.149 70.6496 162.002 70.6929 161.738 70.7535C161.474 70.8141 161.089 70.9006 160.613 70.9915C159.661 71.1776 158.336 71.3984 156.869 71.5672C155.398 71.7403 154.06 71.8269 153.091 71.8658C152.606 71.8831 152.212 71.8961 151.944 71.8918C151.675 71.8918 151.524 71.8874 151.524 71.8745Z" fill="#E0E0E0"/>
<path d="M146.018 63.6077C146.031 63.599 146.118 63.7072 146.269 63.9063C146.421 64.1054 146.633 64.3997 146.893 64.7633C147.412 65.4904 148.122 66.5075 148.892 67.6329C149.663 68.7582 150.355 69.7883 150.844 70.537C151.091 70.9093 151.286 71.2166 151.416 71.4286C151.545 71.6407 151.615 71.7619 151.602 71.7706C151.589 71.7792 151.502 71.671 151.351 71.4719C151.199 71.2728 150.987 70.9785 150.727 70.6149C150.208 69.8878 149.498 68.8707 148.728 67.7454C147.957 66.6201 147.265 65.5943 146.776 64.8455C146.529 64.4733 146.334 64.166 146.205 63.9539C146.075 63.7375 146.01 63.6163 146.018 63.6077Z" fill="#E0E0E0"/>
<path d="M138.998 74.7657C139.011 74.757 139.119 74.8955 139.314 75.1509C139.526 75.4408 139.795 75.8087 140.119 76.2459C140.79 77.1764 141.708 78.4705 142.712 79.9032C143.716 81.3401 144.612 82.6429 145.257 83.5951C145.56 84.0495 145.811 84.4261 146.01 84.7247C146.183 84.993 146.274 85.1489 146.265 85.1532C146.252 85.1618 146.144 85.0233 145.949 84.768C145.737 84.478 145.469 84.1101 145.144 83.673C144.473 82.7424 143.556 81.4483 142.552 80.0157C141.547 78.5831 140.652 77.276 140.007 76.3238C139.704 75.8693 139.453 75.4928 139.254 75.1941C139.076 74.9258 138.985 74.7743 138.998 74.7657Z" fill="#E0E0E0"/>
<path d="M146.157 84.8632C146.157 84.8502 146.343 84.8199 146.685 84.781C147.062 84.7377 147.551 84.6814 148.131 84.6165C149.351 84.478 151.035 84.2789 152.892 84.0105C154.748 83.7422 156.419 83.4609 157.626 83.2445C158.202 83.1449 158.683 83.0584 159.059 82.9934C159.397 82.9372 159.587 82.9112 159.591 82.9242C159.596 82.9372 159.41 82.9891 159.076 83.067C158.743 83.1492 158.258 83.2574 157.652 83.3786C156.449 83.6253 154.774 83.9326 152.917 84.201C151.061 84.4693 149.368 84.6468 148.144 84.7507C147.529 84.8026 147.036 84.8372 146.689 84.8545C146.347 84.8718 146.157 84.8762 146.157 84.8632Z" fill="#E0E0E0"/>
<path d="M295.495 101.366C295.495 92.0047 287.034 84.6165 277.338 86.4344C271.24 87.577 266.384 92.5587 265.315 98.67C264.648 102.492 265.436 106.084 267.176 109.049H267.167L267.211 109.105C267.795 110.088 268.526 110.789 269.262 111.823L278.092 123.518C279.191 124.972 281.377 124.972 282.476 123.518L291.158 112.014C291.158 112.014 292.777 110.079 293.366 109.088L293.396 109.045H293.392C294.725 106.794 295.495 104.171 295.495 101.366ZM280.29 107.988C276.594 107.988 273.599 104.993 273.599 101.297C273.599 97.601 276.594 94.6059 280.29 94.6059C283.986 94.6059 286.982 97.601 286.982 101.297C286.982 104.989 283.986 107.988 280.29 107.988Z" fill="#F5F5F5"/>
<path d="M223.696 33.7479V51.6318C223.696 52.017 224.007 52.3286 224.392 52.3286H261.891C262.281 52.3286 262.593 52.0127 262.588 51.6231L262.502 45.0747C262.502 44.9275 262.45 44.7847 262.363 44.6678L256.983 37.4788C256.853 37.3056 256.65 37.2018 256.429 37.1974L250.231 37.1498C249.85 37.1455 249.539 36.8339 249.539 36.453V33.7479C249.539 33.3627 249.227 33.0511 248.842 33.0511H224.388C224.007 33.0511 223.696 33.3627 223.696 33.7479Z" fill="#F5F5F5"/>
<path d="M251.287 38.708V44.4471C251.287 44.6721 251.469 44.8496 251.694 44.8453L259.974 44.6981C260.29 44.6938 260.476 44.3389 260.299 44.0749L256.429 38.366C256.351 38.2535 256.226 38.1886 256.087 38.1929L251.681 38.3098C251.461 38.3141 251.287 38.4916 251.287 38.708Z" fill="#EBEBEB"/>
<path d="M263.333 52.874H222.938V54.1205H263.333V52.874Z" fill="#F5F5F5"/>
<path d="M235.126 56.1754C236.686 54.6153 236.686 52.0859 235.126 50.5258C233.566 48.9657 231.037 48.9658 229.477 50.5258C227.916 52.0859 227.916 54.6153 229.477 56.1754C231.037 57.7355 233.566 57.7355 235.126 56.1754Z" fill="#EBEBEB"/>
<path d="M234.654 53.3501C234.654 54.6485 233.603 55.7002 232.304 55.7002C231.006 55.7002 229.954 54.6485 229.954 53.3501C229.954 52.0516 231.006 50.9999 232.304 50.9999C233.603 50.9999 234.654 52.0516 234.654 53.3501Z" fill="#FAFAFA"/>
<path d="M249.513 52.3286C249.413 52.3286 249.331 48.0135 249.331 42.6899C249.331 37.3662 249.413 33.0511 249.513 33.0511C249.612 33.0511 249.695 37.3662 249.695 42.6899C249.695 48.0135 249.612 52.3286 249.513 52.3286Z" fill="#EBEBEB"/>
<path d="M256.897 56.1773C258.457 54.6173 258.457 52.0879 256.897 50.5278C255.337 48.9677 252.808 48.9677 251.248 50.5278C249.688 52.0879 249.688 54.6173 251.248 56.1773C252.808 57.7374 255.337 57.7374 256.897 56.1773Z" fill="#EBEBEB"/>
<path d="M256.429 53.3501C256.429 54.6486 255.377 55.7003 254.079 55.7003C252.781 55.7003 251.729 54.6486 251.729 53.3501C251.729 52.0517 252.781 50.9999 254.079 50.9999C255.373 50.9999 256.429 52.0517 256.429 53.3501Z" fill="#FAFAFA"/>
<path d="M254.088 45.9792C254.088 46.0788 253.516 46.161 252.811 46.161C252.105 46.161 251.534 46.0788 251.534 45.9792C251.534 45.8797 252.105 45.7975 252.811 45.7975C253.512 45.7975 254.088 45.8797 254.088 45.9792Z" fill="#EBEBEB"/>
<path d="M303 179.334C303 179.394 235.165 179.446 151.506 179.446C67.8219 179.446 0 179.398 0 179.334C0 179.273 67.8219 179.221 151.506 179.221C235.165 179.221 303 179.273 303 179.334Z" fill="black"/>
<path d="M60.5074 177.429C66.3374 173.387 67.6834 165.847 67.48 159.065C67.4454 157.931 67.5752 156.741 67.0385 155.745C66.5018 154.75 65.251 154.066 64.2339 154.542C63.3899 154.936 63.022 155.91 62.5502 156.719C61.9227 157.792 60.9834 158.68 59.8884 159.247C59.1656 159.619 58.274 159.844 57.5642 159.45C56.5904 158.909 56.4779 157.559 56.4908 156.433C56.5125 154.334 56.5298 152.235 56.5514 150.14C56.5644 149.015 56.5687 147.864 56.2225 146.795C55.8762 145.726 55.1058 144.73 54.0368 144.427C52.9677 144.124 51.639 144.734 51.4096 145.838C51.3144 146.297 51.4053 146.773 51.3707 147.24C51.336 147.708 51.1196 148.223 50.6738 148.353C50.2237 148.483 49.7736 148.162 49.4403 147.833C48.2804 146.691 47.497 145.223 46.7655 143.765C46.0341 142.306 45.3242 140.813 44.2725 139.571C43.2208 138.329 41.7665 137.338 40.1564 137.242C38.542 137.147 36.8238 138.134 36.4083 139.718C35.9928 141.302 36.9147 142.917 37.9188 144.206C39.4077 146.119 41.1692 147.812 43.1342 149.214C43.4891 149.465 43.87 149.742 44.0042 150.158C44.2465 150.911 43.5324 151.651 42.7923 151.897C41.9526 152.174 41.0437 152.084 40.1651 152.183C39.2865 152.283 38.3343 152.668 38.001 153.495C37.5379 154.642 38.4944 155.853 39.438 156.645C41.3294 158.234 43.4891 159.493 45.796 160.346C46.6227 160.653 47.4926 160.922 48.1592 161.506C48.8257 162.09 49.2239 163.103 48.8171 163.895C48.4102 164.687 47.3758 164.938 46.5058 164.774C45.6402 164.609 44.8655 164.137 44.0388 163.821C42.4936 163.233 40.494 163.332 39.4986 164.665C38.845 165.544 38.7844 166.765 39.109 167.816C39.4336 168.864 40.1002 169.768 40.8057 170.604C43.277 173.521 46.4409 175.875 50.0289 177.131C53.6126 178.373 56.9366 178.719 60.5074 177.429Z" fill="#054F31"/>
<path d="M60.1222 179.338C59.8841 176.65 59.7629 176.594 58.7718 173.17C57.785 169.742 56.3913 166.081 54.8072 162.294C54.4047 161.35 54.0108 160.415 53.6213 159.498C53.2318 158.58 52.8422 157.671 52.4051 156.806C51.5438 155.07 50.5829 153.464 49.6221 151.971C48.6613 150.478 47.6961 149.093 46.7872 147.807C45.8739 146.522 44.9953 145.34 44.1513 144.297C42.4677 142.202 40.9182 140.679 39.8059 139.675C39.2519 139.173 38.8104 138.796 38.5074 138.541C38.3603 138.42 38.2477 138.329 38.1612 138.255C38.0833 138.195 38.04 138.16 38.04 138.164C38.0357 138.169 38.0746 138.203 38.1482 138.272C38.2304 138.346 38.343 138.446 38.4815 138.571C38.7758 138.831 39.2086 139.22 39.7539 139.731C40.8446 140.752 42.3768 142.289 44.0388 144.388C44.8741 145.436 45.7398 146.617 46.6443 147.907C47.5489 149.197 48.5098 150.582 49.462 152.075C50.4141 153.568 51.3663 155.17 52.2233 156.896C52.6561 157.758 53.037 158.662 53.4309 159.58C53.8204 160.497 54.2143 161.432 54.6168 162.376C56.2052 166.159 57.5989 169.812 58.59 173.222C59.5898 176.633 59.724 176.672 59.975 179.347" fill="black"/>
<path d="M52.3445 156.797C52.3575 156.801 52.3964 156.628 52.457 156.316C52.5176 156.005 52.5912 155.555 52.6691 154.992C52.8336 153.871 53.0067 152.317 53.1885 150.603C53.3702 148.889 53.565 147.34 53.7468 146.223C53.8334 145.665 53.9113 145.215 53.9675 144.903C54.0238 144.592 54.0454 144.418 54.0324 144.414C54.0195 144.41 53.9675 144.579 53.8896 144.886C53.8074 145.193 53.7122 145.639 53.604 146.197C53.3876 147.31 53.1668 148.863 52.985 150.577C52.8076 152.27 52.6474 153.802 52.5263 154.97C52.4657 155.498 52.4181 155.944 52.3791 156.303C52.3445 156.619 52.3315 156.797 52.3445 156.797Z" fill="black"/>
<path d="M37.8799 154.04C37.8799 154.053 38.0833 154.079 38.4555 154.109C38.8277 154.144 39.3644 154.191 40.0266 154.269C41.3511 154.416 43.1775 154.685 45.1728 155.07C47.1724 155.46 48.9642 155.884 50.254 156.234C50.8989 156.403 51.4183 156.555 51.7775 156.654C52.1368 156.758 52.3359 156.81 52.3402 156.793C52.3445 156.78 52.1541 156.702 51.7992 156.576C51.4486 156.451 50.9336 156.278 50.2887 156.091C49.0075 155.706 47.2113 155.256 45.2074 154.867C43.2035 154.481 41.3684 154.235 40.0353 154.126C39.3688 154.066 38.8277 154.04 38.4555 154.031C38.0876 154.023 37.8799 154.027 37.8799 154.04Z" fill="black"/>
<path d="M58.5944 172.906C58.603 172.911 58.6333 172.85 58.6939 172.729C58.7632 172.586 58.8454 172.413 58.9449 172.205C59.1613 171.751 59.4513 171.084 59.8062 170.257C60.5117 168.6 61.412 166.284 62.3685 163.713C63.3293 161.142 64.208 158.818 64.8745 157.152C65.2034 156.342 65.4718 155.676 65.6709 155.178C65.7574 154.962 65.8267 154.784 65.8829 154.642C65.9306 154.516 65.9522 154.451 65.9435 154.447C65.9349 154.442 65.9046 154.503 65.844 154.624C65.7747 154.767 65.6925 154.936 65.593 155.148C65.3765 155.602 65.0866 156.269 64.7317 157.096C64.0262 158.753 63.1259 161.069 62.1651 163.64C61.2042 166.211 60.3256 168.535 59.6591 170.201C59.3301 171.011 59.0618 171.677 58.8627 172.175C58.7761 172.391 58.7069 172.569 58.6506 172.711C58.6117 172.837 58.59 172.902 58.5944 172.906Z" fill="black"/>
<path d="M39.3817 166.639C39.3817 166.648 39.4466 166.674 39.5722 166.717C39.7236 166.769 39.9054 166.83 40.1305 166.907C40.6455 167.076 41.3424 167.306 42.1863 167.583C43.9219 168.154 46.3154 168.968 48.9556 169.872C51.5957 170.777 53.9978 171.569 55.7464 172.106C56.6207 172.374 57.3305 172.582 57.8239 172.716C58.0533 172.776 58.2394 172.828 58.3952 172.867C58.5251 172.898 58.5943 172.915 58.5986 172.906C58.5986 172.898 58.5337 172.872 58.4082 172.828C58.2567 172.776 58.0749 172.716 57.8499 172.638C57.3348 172.469 56.638 172.24 55.794 171.963C54.0584 171.391 51.665 170.578 49.0248 169.673C46.3846 168.769 43.9869 167.976 42.234 167.44C41.3597 167.171 40.6499 166.964 40.1565 166.83C39.9271 166.769 39.7409 166.717 39.5851 166.678C39.451 166.643 39.3817 166.63 39.3817 166.639Z" fill="black"/>
<path d="M130.788 179.333H70.553C63.273 179.299 57.1228 173.092 57.1531 165.817L57.7936 14.1111C57.8239 6.82687 63.7535 0.949261 71.0377 0.983886L131.549 1.26522C138.829 1.29984 144.703 7.22506 144.668 14.5007L144.027 166.206C143.997 173.491 138.068 179.368 130.788 179.333Z" fill="black"/>
<path d="M131.463 7.02986L119.729 6.97793C118.158 6.96927 116.873 8.29801 116.868 9.9427L116.86 12.0678C116.851 13.7125 115.57 15.0412 113.999 15.0326L91.129 14.9287C89.5578 14.9201 88.2854 13.5827 88.294 11.938L88.3027 9.80853C88.3113 8.16384 87.0389 6.82211 85.4678 6.81778L81.343 6.80047L71.0724 6.75286C65.9738 6.73122 61.8188 10.8473 61.7972 15.9458L61.1696 164.024C61.1479 169.123 65.2597 173.274 70.3582 173.295L130.749 173.572C135.847 173.594 140.002 169.478 140.024 164.379L140.652 16.3007C140.673 11.2022 136.561 7.0515 131.463 7.02986Z" fill="#F5F5F5"/>
<path d="M105.832 145.587C105.762 147.374 105.697 149.054 105.641 150.447H114.315L113.254 145.119L105.832 145.587Z" fill="#F5F5F5"/>
<path d="M70.5789 147.816L70.6525 150.443H104.78C104.836 148.967 104.901 147.327 104.966 145.639L70.5789 147.816Z" fill="#F5F5F5"/>
<path d="M113.692 145.089L114.761 150.447H130.753L130.563 144.024L113.692 145.089Z" fill="#F5F5F5"/>
<path d="M106.702 70.2167L109.723 52.6834L101.802 52.0948V70.2167H106.702Z" fill="#F5F5F5"/>
<path d="M69.8648 138.082L61.2691 141.449L61.2432 147.539L70.1202 146.976L69.8648 138.082Z" fill="#F5F5F5"/>
<path d="M69.8258 136.714L69.3541 120.384H69.3497V114.623L61.3773 115.467L61.2734 140.056L69.8215 136.706L69.8258 136.714Z" fill="#F5F5F5"/>
<path d="M69.3498 101.769L61.4379 100.726L61.3817 114.165L69.3498 113.321V101.769Z" fill="#F5F5F5"/>
<path d="M128.29 114.866L127.957 119.549L118.617 120.553L119.34 124.258L129.944 123.457L129.784 118.147L130.632 114.632L128.29 114.866Z" fill="#F5F5F5"/>
<path d="M111.458 124.851L118.907 124.292L117.284 115.978L110.783 116.636L111.458 124.851Z" fill="#F5F5F5"/>
<path d="M111.527 125.716L112.099 132.646L113.107 142.15L113.523 144.232L130.537 143.159L129.97 124.323L111.527 125.716Z" fill="#F5F5F5"/>
<path d="M82.2476 92.9914L82.9011 94.1123L69.7825 101.764V119.917L83.6282 118.939L110.316 116.246L109.337 104.348L83.8403 101.016L84.0091 99.7303L109.229 103.024L107.576 82.8852L82.6155 85.2873L82.5332 84.426L107.507 82.0239L106.645 71.5151H82.6328L61.5461 75.3542L61.4422 99.4186L69.4276 100.47L82.2476 92.9914ZM71.1242 118.185C71.1242 118.185 71.2238 103.219 71.1242 102.656L81.8321 96.9603L83.2214 117.419L71.1242 118.185Z" fill="#F5F5F5"/>
<path d="M127.416 114.957L117.717 115.935L118.452 119.7L127.148 118.765L127.416 114.957Z" fill="#F5F5F5"/>
<path d="M105.957 142.38C105.927 143.168 105.897 143.947 105.866 144.717L113.086 144.258L112.713 142.397L105.957 142.38Z" fill="#F5F5F5"/>
<path d="M90.4061 70.2167L91.6786 64.4517H101.369V52.0645L71.0637 49.8182V61.4479L61.598 63.5904L61.5504 74.0298L82.5159 70.2167H90.4061Z" fill="#F5F5F5"/>
<path d="M110.627 35.7518L110.368 34.6914L121.941 30.1122L114.414 15.0027C114.28 15.0243 114.142 15.0373 113.999 15.0373L101.209 14.9767L101.555 36.124L110.627 35.7518Z" fill="#F5F5F5"/>
<path d="M128.169 27.6452L128.156 7.01293L119.734 6.97398C118.162 6.96532 116.877 8.29406 116.873 9.93876L116.86 12.0682C116.855 13.0853 116.366 13.9769 115.622 14.5093L123.153 29.6318L128.169 27.6452Z" fill="#F5F5F5"/>
<path d="M84.6627 28.5325L83.6889 6.80953L81.343 6.79655L72.189 6.75327L68.2894 26.1823L84.6627 28.5325ZM82.5722 9.00823L82.8839 26.7017L70.7175 24.9228L73.3836 9.01255L82.5722 9.00823Z" fill="#F5F5F5"/>
<path d="M85.1042 28.5973L85.1085 28.7834C85.1302 30.4801 85.1648 33.5314 85.1908 36.7948L101.131 36.1456L100.785 14.9767L91.1376 14.9334C89.5665 14.9247 88.294 13.5873 88.3027 11.9426L88.3113 9.81319C88.32 8.16849 87.0475 6.82677 85.4764 6.82244L84.126 6.81812L85.1042 28.6016V28.5973Z" fill="#F5F5F5"/>
<path d="M66.9996 25.9961L70.8603 6.75754C65.8569 6.84843 61.8188 10.9126 61.7971 15.9418L61.7582 25.533L61.7971 25.2517L66.9996 25.9961Z" fill="#F5F5F5"/>
<path d="M69.7652 49.723L61.6586 49.1214L61.6024 62.2573L69.7652 60.4091V49.723Z" fill="#F5F5F5"/>
<path d="M66.913 26.4203L61.7582 25.6802L61.6673 46.953L62.7753 47.0352L66.913 26.4203Z" fill="#F5F5F5"/>
<path d="M83.2907 136.468L83.4248 119.389L69.7869 120.354L70.2673 137.082L83.2907 136.468Z" fill="#F5F5F5"/>
<path d="M85.7966 132.525L105.113 141.778C105.343 135.732 105.55 130.079 105.529 129.716L105.948 129.694L106.152 129.287C106.425 129.426 106.425 129.426 106.282 133.546C106.199 135.844 106.087 138.904 105.97 141.969H112.648L111.666 132.685L110.35 116.675L85.1128 119.22L85.7966 132.525Z" fill="#F5F5F5"/>
<path d="M133.142 104.184L132.926 101.929L109.775 104.34L110.748 116.203L130.736 114.186L133.142 104.184Z" fill="#F5F5F5"/>
<path d="M101.369 65.7501H92.7216L91.7348 70.2167H101.369V65.7501Z" fill="#F5F5F5"/>
<path d="M129.567 67.2563L107.905 65.7587L107.022 70.8746L107.935 81.9806L130.779 79.7819L129.567 67.2563ZM108.705 70.8659L109.87 67.6371L128.684 68.8274L129.775 78.068L109.346 80.4917L108.705 70.8659Z" fill="#F5F5F5"/>
<path d="M131.813 90.4681L130.866 80.6476L108.009 82.8419L108.866 93.2987L131.813 90.4681Z" fill="#F5F5F5"/>
<path d="M70.1461 147.846L61.2778 148.405L61.2388 147.829L61.2302 150.447H70.2197L70.1461 147.846Z" fill="#F5F5F5"/>
<path d="M140.496 22.7673L140.626 23.0963L140.656 16.2968C140.677 11.1982 136.566 7.05186 131.467 7.02589L128.589 7.01291L128.602 27.472L140.496 22.7673Z" fill="#F5F5F5"/>
<path d="M105.096 142.25L85.3811 132.806L84.6843 119.272L83.8576 119.354L83.7191 136.879L70.2803 137.515L70.2933 137.904L70.2976 137.913H70.2933L70.5529 146.95L105.001 144.773C105.031 143.934 105.061 143.09 105.096 142.25ZM71.1243 138.632L89.9343 137.312L102.17 142.99L71.1243 144.669V138.632Z" fill="#F5F5F5"/>
<path d="M134.891 45.4944L135.696 40.7118C128.624 38.1885 128.135 30.8177 128.156 28.5844L123.542 30.4108L130.493 44.3604L134.891 45.4944Z" fill="#F5F5F5"/>
<path d="M109.666 103.046L119.279 102.046L117.383 93.554L108.974 94.5928L109.666 103.046Z" fill="#F5F5F5"/>
<path d="M129.602 52.8263H111.649L110.16 52.7137L108.13 64.4733L129.442 65.9448L128.948 60.8333L131.043 53.285L129.602 52.8263Z" fill="#F5F5F5"/>
<path d="M129.165 50.6622L129.39 45.0486L122.335 30.8826L111.393 35.2108L115.154 50.6579H129.165V50.6622ZM121.906 32.6095L128.373 44.9101L127.438 48.7448L116.375 48.3293L113.609 36.6953L121.906 32.6095Z" fill="#F5F5F5"/>
<path d="M131.956 118.372L132.285 129.395L140.067 128.958L140.089 129.391L132.298 129.828L132.696 143.02L140.05 142.553L140.106 143.419L132.722 143.886L132.917 150.447H140.084L140.24 113.663L132.913 114.403L131.956 118.372Z" fill="#F5F5F5"/>
<path d="M84.6757 28.9696L68.2028 26.6064L64.0824 47.1304L84.7449 48.6626C84.8315 45.5031 84.7579 35.808 84.6757 28.9696Z" fill="#F5F5F5"/>
<path d="M111.77 50.6622H114.259L110.731 36.1803L101.564 36.5568L101.785 49.9264L111.77 50.6622Z" fill="#F5F5F5"/>
<path d="M61.1869 160.982L61.1739 164.02C61.1739 164.116 61.1825 164.207 61.1869 164.297V160.982Z" fill="#F5F5F5"/>
<path d="M85.1691 48.6929L101.352 49.8917L101.131 36.5741L85.1864 37.2276C85.221 41.7289 85.2383 46.5331 85.1691 48.6929Z" fill="#F5F5F5"/>
<path d="M131.939 91.7622L117.816 93.5021L119.712 101.998L132.8 100.639L131.939 91.7622Z" fill="#F5F5F5"/>
<path d="M135.769 40.2746L136.674 34.9078L140.574 35.2107L140.621 23.6503L128.593 28.4112C128.351 36.5438 133.462 39.4047 135.769 40.2746Z" fill="#F5F5F5"/>
<path d="M131.138 61.0281L131.632 66.0963L140.439 66.7066L140.483 56.2628L133.108 53.9342L131.138 61.0281Z" fill="#F5F5F5"/>
<path d="M135.332 104.335L133.017 113.957L140.24 113.23L140.284 103.141C138.068 102.557 136.133 102.08 135.09 101.881L135.332 104.335Z" fill="#F5F5F5"/>
<path d="M130.454 50.8267L140.496 53.9992L140.517 48.2904L130.658 45.7411L130.454 50.8267Z" fill="#F5F5F5"/>
<path d="M134.964 100.557C135.774 100.678 137.306 101.003 140.288 101.79L140.383 79.7343L133.017 80.4441L134.964 100.557Z" fill="#F5F5F5"/>
<path d="M132.934 79.5785L140.387 78.86L140.435 68.0094L131.757 67.4077L132.934 79.5785Z" fill="#F5F5F5"/>
<path d="M136.6 40.5517C138.011 40.9801 139.327 41.3134 140.543 41.5558L140.565 36.0807L137.392 35.834L136.6 40.5517Z" fill="#F5F5F5"/>
<path d="M135.73 45.7108L140.522 46.9486L140.543 41.9973C139.306 41.7506 137.968 41.413 136.527 40.9758L135.73 45.7108Z" fill="#F5F5F5"/>
<path d="M70.1461 147.846L70.2197 150.447H70.6525L70.5789 147.82L104.966 145.643C104.901 147.331 104.836 148.972 104.78 150.447H105.645C105.702 149.054 105.767 147.374 105.836 145.587L113.259 145.119L114.319 150.447H114.761L113.691 145.089L130.558 144.02L130.753 150.443H132.917L132.718 143.882L140.102 143.414L140.046 142.549L132.692 143.012L132.294 129.82L140.084 129.382L140.059 128.95L132.281 129.387L131.952 118.363L132.908 114.39L140.24 113.65V113.212L133.017 113.94L135.332 104.318L135.094 101.86C136.133 102.059 138.068 102.535 140.288 103.119L140.292 101.769C137.31 100.985 135.778 100.661 134.969 100.535L133.021 80.4182L140.387 79.7083L140.392 78.8384L132.939 79.5568L131.761 67.3861L140.439 67.9877L140.444 66.685L131.632 66.0747L131.143 61.0021L133.112 53.9126L140.487 56.2412L140.496 53.9732L130.459 50.805L130.662 45.7195L140.522 48.2687L140.526 46.9313L135.735 45.6935L136.531 40.9628C137.968 41.4 139.305 41.7376 140.548 41.9843V41.5385C139.331 41.2961 138.016 40.9628 136.605 40.5344L137.401 35.8167L140.574 36.0634L140.578 35.1934L136.678 34.8905L135.774 40.2574C133.467 39.3874 128.355 36.5265 128.598 28.3896L140.625 23.6286L140.63 23.079L140.5 22.75L128.606 27.4547L128.593 6.99561H128.16L128.173 27.6278L123.161 29.6101L115.63 14.4876C115.276 14.743 114.869 14.9118 114.423 14.9767L121.95 30.0862L110.376 34.6654L110.636 35.7258L101.564 36.098L101.218 14.9507H100.785L101.131 36.1197L85.1907 36.7689C85.1647 33.5055 85.1301 30.4541 85.1085 28.7575L85.1041 28.5714H85.0998L84.1216 6.78786H83.6888L84.6627 28.5108L68.2893 26.1606L72.189 6.73159L71.0723 6.72726C71.0031 6.72726 70.9338 6.73592 70.8602 6.73592L66.9995 25.9745L61.7971 25.2257L61.7582 25.5071V25.6542L66.9173 26.3943L62.7796 47.0049L61.6673 46.9227L61.6586 49.0911L69.7652 49.6927V60.3832L61.6023 62.2313L61.598 63.5644L71.0637 61.4219V49.7922L101.369 52.0385V64.4257H91.6786L90.4061 70.1908H82.5159L61.5547 74.0039L61.5504 75.3239L82.6371 71.4849H106.65L107.511 81.9936L82.5375 84.3957L82.6198 85.257L107.58 82.8549L109.234 102.994L84.0134 99.7L83.8446 100.985L109.342 104.318L110.32 116.216L83.6326 118.908L69.7869 119.886V101.734L82.9054 94.0821L82.2519 92.9611L69.4319 100.436L61.4465 99.3841L61.4422 100.691L69.3497 101.734V113.286L61.3859 114.13L61.3816 115.437L69.354 114.593V120.354H69.3584L69.8301 136.684L69.8258 136.675L61.2777 140.025L61.2734 141.423L69.8691 138.056L70.1245 146.95L61.2474 147.513V147.803L61.2821 148.379L70.1461 147.846ZM105.866 144.717C105.897 143.947 105.927 143.168 105.957 142.38L112.718 142.397L113.09 144.258L105.866 144.717ZM113.523 144.232L113.107 142.15L112.099 132.646L111.527 125.716L129.97 124.327L130.537 143.159L113.523 144.232ZM117.717 115.935L127.416 114.957L127.143 118.765L118.448 119.705L117.717 115.935ZM117.284 115.978L118.907 124.288L111.458 124.851L110.783 116.632L117.284 115.978ZM129.944 123.457L119.34 124.258L118.617 120.553L127.957 119.545L128.29 114.866L130.627 114.628L129.784 118.147L129.944 123.457ZM117.383 93.5541L119.279 102.042L109.666 103.041L108.974 94.5885L117.383 93.5541ZM119.712 101.998L117.816 93.5021L131.939 91.7622L132.8 100.639L119.712 101.998ZM129.442 65.9449L108.13 64.469L110.16 52.7137L111.649 52.8263L129.602 52.8306L131.043 53.285L128.944 60.8376L129.442 65.9449ZM128.156 28.58C128.134 30.8134 128.624 38.1842 135.696 40.7075L134.891 45.4901L130.493 44.3518L123.542 30.4022L128.156 28.58ZM122.33 30.8869L129.385 45.0529L129.16 50.6665H115.15L111.389 35.2194L122.33 30.8869ZM110.731 36.1802L114.258 50.6622H111.765L101.785 49.9221L101.564 36.5525L110.731 36.1802ZM101.131 36.5741L101.352 49.8918L85.1691 48.6929C85.2383 46.5332 85.221 41.7289 85.1907 37.2233L101.131 36.5741ZM68.2028 26.6064L84.6757 28.9696C84.7579 35.808 84.8315 45.4987 84.7492 48.6583L64.0867 47.1261L68.2028 26.6064ZM109.723 52.6834L106.697 70.2167H101.802V52.0948L109.723 52.6834ZM92.7217 65.7501H101.369V70.2167H91.7348L92.7217 65.7501ZM107.026 70.8746L107.909 65.7587L129.571 67.2563L130.783 79.7862L107.939 81.9849L107.026 70.8746ZM130.866 80.6475L131.818 90.4724L108.87 93.2987L108.013 82.8462L130.866 80.6475ZM109.775 104.34L132.926 101.933L133.142 104.184L130.736 114.186L110.744 116.203L109.775 104.34ZM111.666 132.685L112.653 141.964H105.974C106.091 138.904 106.204 135.844 106.286 133.542C106.429 129.421 106.429 129.421 106.156 129.283L105.953 129.69L105.533 129.711C105.55 130.071 105.347 135.727 105.117 141.774L85.801 132.52L85.1171 119.22L110.354 116.675L111.666 132.685ZM83.4248 119.389L83.2906 136.468L70.2716 137.086L69.7912 120.358L83.4248 119.389ZM70.2932 137.913V137.904L70.2803 137.515L83.7191 136.879L83.8576 119.354L84.6843 119.272L85.3811 132.806L105.096 142.25C105.066 143.09 105.031 143.934 105.001 144.773L70.5529 146.95L70.2932 137.913Z" fill="white"/>
<path d="M89.9344 137.312L71.1243 138.632V144.669L102.17 142.986L89.9344 137.312Z" fill="#EBEBEB"/>
<path d="M128.68 68.8274L109.865 67.6371L108.706 70.8659L109.342 80.4874L129.771 78.0636L128.68 68.8274Z" fill="#EBEBEB"/>
<path d="M70.3625 173.291L130.753 173.568C135.852 173.59 140.007 169.474 140.028 164.375L140.089 150.443H132.917H130.753H114.761H114.319H105.646H104.78H70.6525H70.2197H61.2302L61.1869 160.978V164.293C61.3124 169.266 65.3592 173.265 70.3625 173.291Z" fill="#EBEBEB"/>
<path d="M82.8881 26.7016L82.5722 9.00821H73.3835L70.7174 24.9228L82.8881 26.7016Z" fill="#EBEBEB"/>
<path d="M127.438 48.7448L128.373 44.9101L121.906 32.6095L113.605 36.6953L116.375 48.3293L127.438 48.7448Z" fill="#EBEBEB"/>
<path d="M71.1243 102.66C71.2238 103.219 71.1243 118.19 71.1243 118.19L83.2171 117.424L81.8278 96.9646L71.1243 102.66Z" fill="#EBEBEB"/>
<path d="M111.458 114.814L110.822 105.539L131.562 102.873V104.474L129.056 113.005L111.458 114.814Z" fill="#EBEBEB"/>
<path d="M96.115 37.8899C96.115 39.2835 94.9854 40.4175 93.5874 40.4175C92.1937 40.4175 91.0598 39.2879 91.0598 37.8899C91.0598 36.4962 92.1894 35.3622 93.5874 35.3622C94.9854 35.3622 96.115 36.4962 96.115 37.8899Z" fill="#FEC54B"/>
<g opacity="0.6">
<path opacity="0.6" d="M96.115 37.7817C96.1756 39.1753 95.0936 40.3526 93.6999 40.4132C92.3063 40.4738 91.129 39.3917 91.0684 37.9981C91.0078 36.6044 92.0898 35.4272 93.4835 35.3666C94.8772 35.306 96.0544 36.388 96.115 37.7817Z" fill="white"/>
</g>
<path d="M93.5916 39.4826C94.5191 39.4826 95.2709 38.7308 95.2709 37.8033C95.2709 36.8759 94.5191 36.124 93.5916 36.124C92.6642 36.124 91.9123 36.8759 91.9123 37.8033C91.9123 38.7308 92.6642 39.4826 93.5916 39.4826Z" fill="#FEC54B"/>
<path d="M132.64 138.8C132.64 139.398 132.155 139.878 131.562 139.878C130.969 139.878 130.485 139.393 130.485 138.8C130.485 138.203 130.969 137.723 131.562 137.723C132.155 137.723 132.64 138.203 132.64 138.8Z" fill="#FEC54B"/>
<path d="M130.913 138.45L130.654 132.399L112.419 133.286C111.943 133.312 111.467 133.208 111.043 132.992L85.1821 119.93C84.5848 119.627 84.191 119.025 84.1563 118.354L80.6376 50.0823C80.6203 49.7533 80.7458 49.4374 80.9795 49.208C81.2132 48.9786 81.5378 48.8617 81.8624 48.8834L92.9468 49.7057V37.5869H94.2452V49.8702C94.2452 50.1861 94.1111 50.4934 93.8817 50.7055C93.648 50.9219 93.3363 51.0301 93.0204 51.0085L81.9447 50.1861L85.4548 118.281C85.4634 118.484 85.5846 118.67 85.7707 118.765L111.631 131.828C111.856 131.94 112.107 131.997 112.363 131.984L130.749 131.088C131.06 131.075 131.35 131.179 131.58 131.386C131.809 131.594 131.939 131.875 131.952 132.187L132.22 138.389L130.913 138.45Z" fill="#FEC54B"/>
<path d="M82.7497 82.9978C84.5568 82.9978 86.0217 81.5328 86.0217 79.7257C86.0217 77.9186 84.5568 76.4536 82.7497 76.4536C80.9426 76.4536 79.4776 77.9186 79.4776 79.7257C79.4776 81.5328 80.9426 82.9978 82.7497 82.9978Z" fill="#FEC54B"/>
<path d="M82.7496 81.998C84.0046 81.998 85.0219 80.9807 85.0219 79.7257C85.0219 78.4708 84.0046 77.4534 82.7496 77.4534C81.4947 77.4534 80.4774 78.4708 80.4774 79.7257C80.4774 80.9807 81.4947 81.998 82.7496 81.998Z" fill="#FAFAFA"/>
<path d="M82.7497 82.1625C81.4079 82.1625 80.3129 81.0718 80.3129 79.7257C80.3129 78.384 81.4036 77.289 82.7497 77.289C84.0914 77.289 85.1864 78.3797 85.1864 79.7257C85.1864 81.0718 84.0914 82.1625 82.7497 82.1625ZM82.7497 77.6179C81.5854 77.6179 80.6375 78.5658 80.6375 79.73C80.6375 80.8943 81.5854 81.8422 82.7497 81.8422C83.9139 81.8422 84.8618 80.8943 84.8618 79.73C84.8618 78.5614 83.9139 77.6179 82.7497 77.6179Z" fill="#FEC54B"/>
<path d="M102.027 66.0013H86.4459C85.6884 66.0013 85.0739 66.6158 85.0739 67.3733V73.0172C85.0739 73.7746 85.6884 74.3892 86.4459 74.3892H86.6277V75.7352L88.1858 74.3892H102.027C102.785 74.3892 103.399 73.7746 103.399 73.0172V67.3733C103.399 66.6158 102.785 66.0013 102.027 66.0013Z" fill="#FEC54B"/>
<g opacity="0.4">
<g opacity="0.4">
<path opacity="0.4" d="M102.027 66.0013H86.4459C85.6884 66.0013 85.0739 66.6158 85.0739 67.3733V73.0172C85.0739 73.7746 85.6884 74.3892 86.4459 74.3892H86.6277V75.7352L88.1858 74.3892H102.027C102.785 74.3892 103.399 73.7746 103.399 73.0172V67.3733C103.399 66.6158 102.785 66.0013 102.027 66.0013Z" fill="white"/>
</g>
</g>
<path d="M88.5754 70.1039C88.5754 69.5888 88.9736 69.2036 89.5146 69.2036C90.0513 69.2036 90.4495 69.5845 90.4495 70.1039C90.4495 70.6232 90.0513 71.0041 89.5146 71.0041C88.9736 71.0041 88.5754 70.6189 88.5754 70.1039ZM90.1984 70.1039C90.1984 69.7143 89.9085 69.4287 89.5146 69.4287C89.1207 69.4287 88.8264 69.7143 88.8264 70.1039C88.8264 70.4934 89.1164 70.7791 89.5146 70.7791C89.9041 70.7834 90.1984 70.4934 90.1984 70.1039Z" fill="white"/>
<path d="M92.1807 70.3206C92.1807 70.7275 91.8951 71.0045 91.5055 71.0045C91.3108 71.0045 91.1376 70.9309 91.0294 70.7794V70.9915H90.7957V69.1261H91.0381V69.8619C91.1506 69.719 91.3151 69.6498 91.5055 69.6498C91.8951 69.6411 92.1807 69.9095 92.1807 70.3206ZM91.9383 70.3206C91.9383 70.035 91.7436 69.8532 91.4882 69.8532C91.2329 69.8532 91.0424 70.035 91.0424 70.3206C91.0424 70.6063 91.2372 70.7924 91.4882 70.7924C91.7436 70.7881 91.9383 70.602 91.9383 70.3206Z" fill="white"/>
<path d="M92.0552 71.407L92.1331 71.2209C92.1807 71.2599 92.2499 71.2858 92.3279 71.2858C92.4577 71.2858 92.5269 71.2036 92.5269 71.0521V69.6541H92.7693V71.0478C92.7693 71.3205 92.6178 71.4892 92.3452 71.4892C92.2326 71.4892 92.1244 71.4633 92.0552 71.407ZM92.4837 69.2386C92.4837 69.1521 92.5529 69.0785 92.6481 69.0785C92.7433 69.0785 92.8126 69.1477 92.8126 69.23C92.8126 69.3208 92.7433 69.3901 92.6481 69.3901C92.5572 69.3944 92.4837 69.3295 92.4837 69.2386Z" fill="white"/>
<path d="M94.4313 70.3986H93.3492C93.3795 70.6323 93.57 70.7881 93.834 70.7881C93.9898 70.7881 94.1197 70.7362 94.2192 70.628L94.3534 70.7838C94.2322 70.9266 94.0504 71.0002 93.8253 71.0002C93.3969 71.0002 93.1069 70.7146 93.1069 70.3164C93.1069 69.9225 93.3925 69.6368 93.7777 69.6368C94.1629 69.6368 94.4356 69.9138 94.4356 70.325C94.4356 70.3467 94.4313 70.377 94.4313 70.3986ZM93.3492 70.2255H94.2062C94.1803 70.0004 94.0115 69.8446 93.7777 69.8446C93.544 69.8446 93.3752 70.0004 93.3492 70.2255Z" fill="white"/>
<path d="M94.6477 70.3207C94.6477 69.9225 94.942 69.6412 95.3532 69.6412C95.5912 69.6412 95.7903 69.7407 95.8985 69.9268L95.7168 70.0437C95.6302 69.9138 95.5004 69.8532 95.3532 69.8532C95.0935 69.8532 94.8944 70.035 94.8944 70.3207C94.8944 70.6107 95.0892 70.7924 95.3532 70.7924C95.5004 70.7924 95.6302 70.7319 95.7168 70.602L95.8985 70.7189C95.7947 70.905 95.5956 71.0045 95.3532 71.0045C94.942 71.0002 94.6477 70.7189 94.6477 70.3207Z" fill="white"/>
<path d="M96.972 70.9093C96.8984 70.9742 96.7902 71.0002 96.682 71.0002C96.4137 71.0002 96.2578 70.853 96.2578 70.5847V69.8532H96.0328V69.6542H96.2578V69.3642H96.5002V69.6542H96.8811V69.8532H96.5002V70.576C96.5002 70.7189 96.5738 70.8011 96.708 70.8011C96.7772 70.8011 96.8465 70.7795 96.8984 70.7362L96.972 70.9093Z" fill="white"/>
<path d="M97.223 69.2386C97.223 69.1521 97.2922 69.0785 97.3874 69.0785C97.4783 69.0785 97.5519 69.1477 97.5519 69.23C97.5519 69.3208 97.4826 69.3901 97.3874 69.3901C97.2922 69.3944 97.223 69.3295 97.223 69.2386ZM97.2662 69.6541H97.5086V70.9872H97.2662V69.6541Z" fill="white"/>
<path d="M99.1491 69.6541L98.5648 70.9872H98.3181L97.7338 69.6541H97.9848L98.4436 70.7231L98.911 69.6541H99.1491Z" fill="white"/>
<path d="M100.538 70.3986H99.4563C99.4866 70.6323 99.677 70.7881 99.9411 70.7881C100.097 70.7881 100.227 70.7362 100.326 70.628L100.46 70.7838C100.339 70.9266 100.157 71.0002 99.9324 71.0002C99.5039 71.0002 99.2139 70.7146 99.2139 70.3164C99.2139 69.9225 99.4996 69.6368 99.8848 69.6368C100.27 69.6368 100.543 69.9138 100.543 70.325C100.543 70.3467 100.538 70.377 100.538 70.3986ZM99.4563 70.2255H100.313C100.287 70.0004 100.119 69.8446 99.8848 69.8446C99.6511 69.8446 99.4779 70.0004 99.4563 70.2255Z" fill="white"/>
<path d="M96.881 29.4025C96.881 27.4072 95.0805 25.8361 93.016 26.2213C91.7176 26.4637 90.6831 27.5241 90.4537 28.8269C90.3109 29.6405 90.4797 30.4066 90.8519 31.0385L90.8606 31.0515C90.9861 31.2593 91.1419 31.4107 91.2977 31.6315L93.1805 34.1245C93.4142 34.4361 93.8816 34.4361 94.1153 34.1245L95.9635 31.6748C95.9635 31.6748 96.3097 31.2636 96.4352 31.0515L96.4439 31.0429C96.7166 30.5581 96.881 29.9998 96.881 29.4025ZM93.6393 30.8135C92.8515 30.8135 92.2153 30.1772 92.2153 29.3895C92.2153 28.6018 92.8515 27.9656 93.6393 27.9656C94.427 27.9656 95.0632 28.6018 95.0632 29.3895C95.0632 30.1772 94.427 30.8135 93.6393 30.8135Z" fill="#FEC54B"/>
<path d="M75.9069 157.026H75.301V156.805H76.7596V157.026H76.1536V158.567H75.9026V157.026H75.9069Z" fill="black"/>
<path d="M76.7379 157.901C76.7379 157.502 77.0322 157.221 77.4304 157.221C77.8285 157.221 78.1229 157.502 78.1229 157.901C78.1229 158.299 77.8329 158.584 77.4304 158.584C77.0322 158.584 76.7379 158.299 76.7379 157.901ZM77.8805 157.901C77.8805 157.615 77.69 157.433 77.4347 157.433C77.1793 157.433 76.9846 157.615 76.9846 157.901C76.9846 158.186 77.1793 158.372 77.4347 158.372C77.6857 158.372 77.8805 158.186 77.8805 157.901Z" fill="black"/>
<path d="M79.2093 158.489C79.1357 158.554 79.0275 158.584 78.9193 158.584C78.651 158.584 78.4951 158.437 78.4951 158.165V157.433H78.2701V157.234H78.4951V156.944H78.7375V157.234H79.1184V157.433H78.7375V158.156C78.7375 158.299 78.8111 158.381 78.9453 158.381C79.0145 158.381 79.0838 158.359 79.1357 158.316L79.2093 158.489Z" fill="black"/>
<path d="M80.5553 157.762V158.567H80.3259V158.39C80.2437 158.511 80.0965 158.58 79.8888 158.58C79.5858 158.58 79.3954 158.42 79.3954 158.186C79.3954 157.974 79.5339 157.797 79.9321 157.797H80.3129V157.749C80.3129 157.546 80.1961 157.429 79.9537 157.429C79.7936 157.429 79.6334 157.485 79.5296 157.572L79.43 157.39C79.5685 157.277 79.7676 157.217 79.9797 157.217C80.3519 157.221 80.5553 157.399 80.5553 157.762ZM80.3129 158.16V157.974H79.9407C79.7027 157.974 79.6334 158.065 79.6334 158.182C79.6334 158.316 79.746 158.398 79.9277 158.398C80.1095 158.398 80.2524 158.316 80.3129 158.16Z" fill="black"/>
<path d="M81.0054 156.702H81.2478V158.567H81.0054V156.702Z" fill="black"/>
<path d="M83.6413 156.702V158.567H83.4076V158.355C83.2994 158.507 83.1306 158.58 82.9315 158.58C82.5419 158.58 82.2563 158.307 82.2563 157.896C82.2563 157.489 82.5419 157.217 82.9315 157.217C83.1219 157.217 83.2864 157.286 83.3989 157.429V156.693H83.6413V156.702ZM83.4032 157.901C83.4032 157.615 83.2085 157.433 82.9574 157.433C82.7021 157.433 82.5073 157.615 82.5073 157.901C82.5073 158.186 82.7021 158.372 82.9574 158.372C83.2085 158.372 83.4032 158.186 83.4032 157.901Z" fill="black"/>
<path d="M84.0568 156.823C84.0568 156.736 84.126 156.663 84.2212 156.663C84.3121 156.663 84.3857 156.732 84.3857 156.819C84.3857 156.909 84.3164 156.979 84.2212 156.979C84.126 156.979 84.0568 156.909 84.0568 156.823ZM84.1 157.234H84.3424V158.567H84.1V157.234Z" fill="black"/>
<path d="M84.6324 158.429L84.7319 158.238C84.8445 158.32 85.0263 158.377 85.1994 158.377C85.4244 158.377 85.5153 158.307 85.5153 158.195C85.5153 157.896 84.6713 158.156 84.6713 157.624C84.6713 157.386 84.8834 157.225 85.2253 157.225C85.3985 157.225 85.5976 157.269 85.7101 157.347L85.6062 157.537C85.485 157.459 85.3509 157.433 85.221 157.433C85.0089 157.433 84.9051 157.511 84.9051 157.615C84.9051 157.931 85.749 157.671 85.749 158.191C85.749 158.433 85.5283 158.584 85.1734 158.584C84.9613 158.584 84.7449 158.515 84.6324 158.429Z" fill="black"/>
<path d="M86.8138 158.489C86.7402 158.554 86.632 158.584 86.5238 158.584C86.2554 158.584 86.0996 158.437 86.0996 158.165V157.433H85.8746V157.234H86.0996V156.944H86.342V157.234H86.7229V157.433H86.342V158.156C86.342 158.299 86.4156 158.381 86.5498 158.381C86.619 158.381 86.6883 158.359 86.7402 158.316L86.8138 158.489Z" fill="black"/>
<path d="M88.1599 157.762V158.567H87.9305V158.39C87.8483 158.511 87.7011 158.58 87.4933 158.58C87.1904 158.58 86.9999 158.42 86.9999 158.186C86.9999 157.974 87.1384 157.797 87.5366 157.797H87.9175V157.749C87.9175 157.546 87.8006 157.429 87.5583 157.429C87.3981 157.429 87.238 157.485 87.1341 157.572L87.0346 157.39C87.1731 157.277 87.3722 157.217 87.5842 157.217C87.9521 157.221 88.1599 157.399 88.1599 157.762ZM87.9175 158.16V157.974H87.5453C87.3072 157.974 87.238 158.065 87.238 158.182C87.238 158.316 87.3505 158.398 87.5323 158.398C87.7141 158.398 87.8569 158.316 87.9175 158.16Z" fill="black"/>
<path d="M89.8738 157.801V158.567H89.6314V157.827C89.6314 157.567 89.5016 157.437 89.2722 157.437C89.0168 157.437 88.848 157.589 88.848 157.879V158.567H88.6057V157.234H88.8394V157.433C88.9389 157.299 89.1077 157.221 89.3198 157.221C89.6444 157.221 89.8738 157.407 89.8738 157.801Z" fill="black"/>
<path d="M90.207 157.901C90.207 157.502 90.5013 157.221 90.9125 157.221C91.1506 157.221 91.3497 157.321 91.4579 157.507L91.2761 157.624C91.1895 157.494 91.0597 157.433 90.9125 157.433C90.6528 157.433 90.4537 157.615 90.4537 157.901C90.4537 158.191 90.6485 158.372 90.9125 158.372C91.0597 158.372 91.1895 158.312 91.2761 158.182L91.4579 158.299C91.354 158.485 91.1549 158.584 90.9125 158.584C90.5013 158.584 90.207 158.299 90.207 157.901Z" fill="black"/>
<path d="M92.9467 157.983H91.8647C91.895 158.217 92.0854 158.372 92.3494 158.372C92.5053 158.372 92.6351 158.32 92.7346 158.212L92.8688 158.368C92.7476 158.511 92.5659 158.584 92.3408 158.584C91.9123 158.584 91.6223 158.299 91.6223 157.901C91.6223 157.507 91.908 157.221 92.2932 157.221C92.6784 157.221 92.951 157.498 92.951 157.909C92.951 157.931 92.9467 157.961 92.9467 157.983ZM91.8647 157.81H92.7217C92.6957 157.585 92.5269 157.429 92.2932 157.429C92.0595 157.424 91.8907 157.58 91.8647 157.81Z" fill="black"/>
<path d="M77.4866 160.545V164.748H76.5128V161.324H75.6732V160.545H77.4866Z" fill="black"/>
<path d="M79.3564 164.207C79.3564 164.362 79.3305 164.475 79.1963 164.808L78.8544 165.674H78.2614L78.5254 164.722C78.3263 164.644 78.2008 164.458 78.2008 164.211C78.2008 163.865 78.4518 163.635 78.7851 163.635C79.114 163.631 79.3564 163.865 79.3564 164.207Z" fill="black"/>
<path d="M81.317 160.545V164.748H80.3432V161.324H79.5035V160.545H81.317Z" fill="black"/>
<path d="M82.0485 162.644C82.0485 161.259 82.8189 160.472 83.849 160.472C84.8877 160.472 85.6495 161.259 85.6495 162.644C85.6495 164.029 84.8877 164.817 83.849 164.817C82.8189 164.817 82.0485 164.029 82.0485 162.644ZM84.6713 162.644C84.6713 161.688 84.3337 161.294 83.849 161.294C83.3685 161.294 83.0309 161.692 83.0309 162.644C83.0309 163.601 83.3685 163.995 83.849 163.995C84.338 163.995 84.6713 163.601 84.6713 162.644Z" fill="black"/>
<path d="M86.1257 162.644C86.1257 161.259 86.8961 160.472 87.9262 160.472C88.9649 160.472 89.7267 161.259 89.7267 162.644C89.7267 164.029 88.9649 164.817 87.9262 164.817C86.8961 164.817 86.1257 164.029 86.1257 162.644ZM88.7485 162.644C88.7485 161.688 88.4109 161.294 87.9262 161.294C87.4457 161.294 87.1082 161.692 87.1082 162.644C87.1082 163.601 87.4457 163.995 87.9262 163.995C88.4153 163.995 88.7485 163.601 88.7485 162.644Z" fill="black"/>
<path d="M97.5562 162.895V164.743H96.6214V163.038C96.6214 162.514 96.3876 162.276 96.0111 162.276C95.5913 162.276 95.297 162.545 95.297 163.125V164.748H94.3621V163.042C94.3621 162.519 94.1413 162.281 93.7518 162.281C93.3363 162.281 93.042 162.549 93.042 163.129V164.752H92.1071V161.523H93.003V161.895C93.2411 161.618 93.6047 161.476 94.0158 161.476C94.466 161.476 94.8512 161.649 95.0805 162.004C95.3402 161.675 95.7601 161.476 96.2448 161.476C97.0022 161.467 97.5562 161.913 97.5562 162.895Z" fill="black"/>
<path d="M73.088 161.044C73.5459 159.096 72.3384 157.146 70.3909 156.688C68.4434 156.23 66.4934 157.438 66.0354 159.385C65.5774 161.333 66.7849 163.283 68.7325 163.741C70.68 164.199 72.63 162.991 73.088 161.044Z" fill="#FEC54B"/>
<path d="M68.1076 160.874C68.1076 160.852 68.4452 160.835 69.0381 160.818C69.6311 160.8 70.4751 160.787 71.4879 160.779L71.4143 160.939C71.1286 160.61 70.817 160.246 70.4881 159.87L70.4275 159.801L70.4838 159.731C70.7737 159.368 71.081 158.987 71.397 158.589L71.4836 158.771C71.3537 158.771 71.2109 158.771 71.0724 158.771C70.0033 158.766 68.9949 158.762 68.1033 158.758L68.2028 158.658C68.1942 159.757 68.1812 160.684 68.1639 161.333C68.1466 161.982 68.1249 162.359 68.1033 162.359C68.0816 162.359 68.06 161.982 68.0427 161.333C68.0254 160.684 68.0124 159.757 68.0037 158.658V158.558H68.1076C68.9992 158.554 70.0077 158.55 71.0767 158.545C71.2195 158.545 71.358 158.545 71.4879 158.545H71.7216L71.5744 158.727C71.2542 159.121 70.9469 159.502 70.6525 159.861V159.723C70.9728 160.104 71.2801 160.471 71.5615 160.805L71.7 160.969H71.4879C70.4751 160.961 69.6268 160.948 69.0381 160.93C68.4452 160.917 68.1076 160.896 68.1076 160.874Z" fill="#FAFAFA"/>
<path d="M128.182 154.031H117.228C116.072 154.031 115.133 154.97 115.133 156.126V164.748C115.133 165.903 116.072 166.842 117.228 166.842H117.505V168.898L119.889 166.842H128.182C129.338 166.842 130.277 165.903 130.277 164.748V156.126C130.277 154.97 129.338 154.031 128.182 154.031Z" fill="#FEC54B"/>
<path d="M118.271 157.987V162.41C118.271 162.506 118.349 162.584 118.444 162.584H127.715C127.81 162.584 127.888 162.506 127.888 162.41L127.866 160.792C127.866 160.757 127.853 160.718 127.832 160.692L126.503 158.913C126.473 158.87 126.421 158.844 126.364 158.844L124.832 158.831C124.737 158.831 124.659 158.753 124.659 158.658V157.991C124.659 157.896 124.581 157.818 124.486 157.818H118.439C118.349 157.814 118.271 157.892 118.271 157.987Z" fill="#FAFAFA"/>
<path d="M125.092 159.216V160.636C125.092 160.692 125.135 160.735 125.191 160.735L127.239 160.701C127.317 160.701 127.364 160.61 127.317 160.545L126.36 159.134C126.343 159.108 126.308 159.091 126.273 159.091L125.183 159.121C125.135 159.117 125.092 159.16 125.092 159.216Z" fill="#FEC54B"/>
<path d="M128.07 162.718H118.085V163.025H128.07V162.718Z" fill="#FAFAFA"/>
<path d="M121.387 162.835C121.387 163.38 120.945 163.821 120.4 163.821C119.855 163.821 119.413 163.38 119.413 162.835C119.413 162.289 119.855 161.848 120.4 161.848C120.945 161.848 121.387 162.289 121.387 162.835Z" fill="#FEC54B"/>
<path d="M120.984 162.835C120.984 163.155 120.725 163.415 120.404 163.415C120.084 163.415 119.825 163.155 119.825 162.835C119.825 162.514 120.084 162.255 120.404 162.255C120.72 162.255 120.984 162.514 120.984 162.835Z" fill="#FAFAFA"/>
<path d="M124.655 162.584C124.629 162.584 124.611 161.514 124.611 160.199C124.611 158.883 124.633 157.814 124.655 157.814C124.681 157.814 124.698 158.879 124.698 160.199C124.702 161.514 124.681 162.584 124.655 162.584Z" fill="#FEC54B"/>
<path d="M126.771 162.835C126.771 163.38 126.33 163.821 125.784 163.821C125.239 163.821 124.798 163.38 124.798 162.835C124.798 162.289 125.239 161.848 125.784 161.848C126.33 161.848 126.771 162.289 126.771 162.835Z" fill="#FEC54B"/>
<path d="M126.364 162.835C126.364 163.155 126.105 163.415 125.784 163.415C125.464 163.415 125.204 163.155 125.204 162.835C125.204 162.514 125.464 162.255 125.784 162.255C126.105 162.255 126.364 162.514 126.364 162.835Z" fill="#FAFAFA"/>
<path d="M125.784 161.012C125.784 161.038 125.641 161.056 125.468 161.056C125.295 161.056 125.152 161.034 125.152 161.012C125.152 160.986 125.295 160.969 125.468 160.969C125.646 160.965 125.784 160.986 125.784 161.012Z" fill="#FEC54B"/>
<path d="M229.075 88.4167C229.075 88.4167 236.057 89.5982 236.619 89.7454C237.182 89.8969 239.394 90.9443 239.506 91.6195C239.619 92.2947 239.506 94.2813 239.506 94.2813C239.506 94.2813 239.108 94.6059 238.857 93.9567C238.606 93.3075 238.645 92.022 238.645 92.022L237.407 91.5459L238.082 92.7448L238.195 95.5538C238.195 95.5538 237.329 95.4759 237.165 94.8007C236.996 94.1298 237 93.3767 237 93.3767L236.096 92.6106L236.771 93.5239L237 95.5494C237 95.5494 236.342 95.7615 236.135 95.3114C235.927 94.8613 235.91 93.5239 235.91 93.5239L233.365 92.6366L231.681 93.5758L228.534 91.7969L229.075 88.4167Z" fill="#FFBE9D"/>
<path d="M204.634 71.1604C204.665 71.2989 213.048 82.8377 213.048 82.8377L229.885 88.0748L229.119 94.3982L208.482 90.2432L201.159 81.8379L204.634 71.1604Z" fill="#FEC54B"/>
<g opacity="0.2">
<g opacity="0.2">
<path opacity="0.2" d="M204.634 71.1604C204.665 71.2989 213.048 82.8377 213.048 82.8377L229.885 88.0748L229.119 94.3982L208.482 90.2432L201.159 81.8379L204.634 71.1604Z" fill="black"/>
</g>
</g>
<path d="M175.306 93.7444H140.906C140.179 93.7444 139.586 93.1558 139.586 92.4243V88.3602C139.586 87.6331 140.175 87.0401 140.906 87.0401H175.306C176.034 87.0401 176.627 87.6287 176.627 88.3602V92.4243C176.627 93.1558 176.038 93.7444 175.306 93.7444Z" fill="#F5F5F5"/>
<path d="M175.307 93.7447C175.307 93.7361 175.38 93.7404 175.523 93.7144C175.662 93.6841 175.878 93.6279 176.099 93.4504C176.315 93.2816 176.54 92.983 176.584 92.5761C176.601 92.1693 176.584 91.6845 176.584 91.1478C176.579 90.6068 176.579 90.0095 176.575 89.3517C176.575 89.0227 176.571 88.6808 176.571 88.3259C176.562 87.984 176.406 87.6377 176.125 87.3997C175.986 87.2785 175.818 87.1919 175.636 87.1443C175.454 87.0924 175.259 87.101 175.052 87.101C174.64 87.101 174.221 87.1054 173.788 87.1054C172.918 87.1097 172 87.1097 171.039 87.114C163.322 87.1227 152.671 87.1357 140.911 87.1486C140.574 87.1443 140.24 87.2958 140.02 87.5425C139.79 87.7935 139.682 88.1225 139.704 88.473C139.704 89.2002 139.704 89.923 139.704 90.6371C139.704 90.9964 139.704 91.3513 139.704 91.7062V92.2385C139.704 92.4203 139.704 92.5761 139.747 92.7363C139.829 93.0479 140.046 93.3206 140.327 93.4764C140.465 93.5543 140.621 93.6019 140.781 93.6192C140.933 93.6322 141.119 93.6235 141.292 93.6279C144.066 93.6322 146.741 93.6322 149.29 93.6365C154.385 93.6452 158.977 93.6538 162.837 93.6625C166.685 93.6755 169.801 93.6885 171.97 93.6971C173.039 93.7058 173.874 93.7144 174.454 93.7187C174.731 93.7231 174.943 93.7274 175.099 93.7317C175.233 93.7361 175.307 93.7447 175.307 93.7447C175.307 93.7447 175.233 93.7534 175.086 93.7577C174.93 93.762 174.718 93.762 174.441 93.7707C173.866 93.775 173.03 93.7837 171.957 93.7923C169.793 93.801 166.672 93.814 162.825 93.827C158.968 93.8356 154.376 93.8399 149.277 93.8529C146.728 93.8529 144.053 93.8573 141.279 93.8616C141.102 93.8573 140.941 93.8702 140.747 93.8529C140.561 93.8313 140.374 93.775 140.21 93.6841C139.877 93.5023 139.621 93.1777 139.522 92.8098C139.47 92.6281 139.47 92.4246 139.47 92.2558V91.7235C139.47 91.3686 139.47 91.0093 139.47 90.6544C139.47 89.936 139.47 89.2175 139.47 88.4904C139.444 88.1181 139.574 87.694 139.842 87.4083C140.106 87.114 140.504 86.9366 140.902 86.9409C152.662 86.9539 163.314 86.9669 171.031 86.9755C171.996 86.9798 172.913 86.9798 173.779 86.9842C174.212 86.9842 174.636 86.9885 175.043 86.9885C175.242 86.9885 175.458 86.9798 175.657 87.0404C175.857 87.0967 176.043 87.1919 176.194 87.3261C176.501 87.5901 176.67 87.971 176.675 88.3432C176.675 88.6981 176.675 89.04 176.67 89.369C176.666 90.0225 176.662 90.6241 176.662 91.1651C176.653 91.7062 176.666 92.1779 176.64 92.6021C176.584 93.0306 176.346 93.3335 176.116 93.5067C175.883 93.6841 175.662 93.7317 175.519 93.7577C175.385 93.7577 175.307 93.7447 175.307 93.7447Z" fill="black"/>
<path d="M268.706 179.4C278.468 178.93 286.002 170.636 285.533 160.874C285.064 151.111 276.769 143.577 267.007 144.047C257.244 144.516 249.711 152.81 250.18 162.573C250.649 172.335 258.943 179.869 268.706 179.4Z" fill="black"/>
<path d="M250.171 161.437C250.171 161.454 250.166 161.467 250.166 161.484C250.024 171.257 257.831 179.295 267.604 179.433C277.377 179.576 285.415 171.768 285.553 161.995C285.553 161.978 285.553 161.965 285.553 161.947L250.171 161.437Z" fill="black"/>
<path d="M255.442 161.558C255.343 168.418 260.827 174.062 267.687 174.162C274.547 174.261 280.191 168.777 280.29 161.917C280.39 155.057 274.906 149.413 268.046 149.314C261.181 149.218 255.542 154.698 255.442 161.558Z" fill="#FAFAFA"/>
<path d="M268.042 149.314C261.181 149.214 255.538 154.698 255.438 161.558L280.286 161.917C280.385 155.057 274.906 149.413 268.042 149.314Z" fill="#E0E0E0"/>
<path d="M260.299 161.632C260.238 165.813 263.579 169.249 267.756 169.31C271.937 169.37 275.373 166.029 275.434 161.852C275.495 157.671 272.153 154.235 267.977 154.174C263.796 154.109 260.355 157.451 260.299 161.632Z" fill="black"/>
<path d="M259.463 135.788C259.463 135.788 277.581 130.309 285.077 149.993L247.163 161.735L259.463 135.788Z" fill="#FEC54B"/>
<path d="M159.517 179.403C169.279 178.934 176.813 170.64 176.344 160.877C175.874 151.115 167.58 143.581 157.818 144.05C148.055 144.519 140.521 152.814 140.991 162.576C141.46 172.339 149.754 179.872 159.517 179.403Z" fill="black"/>
<path d="M140.98 161.437C140.98 161.454 140.976 161.467 140.976 161.484C140.833 171.257 148.641 179.295 158.414 179.433C168.187 179.576 176.224 171.768 176.363 161.995C176.363 161.978 176.363 161.965 176.363 161.947L140.98 161.437Z" fill="black"/>
<path d="M146.248 161.558C146.148 168.418 151.632 174.062 158.492 174.162C165.352 174.261 170.996 168.777 171.096 161.917C171.195 155.057 165.711 149.413 158.851 149.314C151.987 149.218 146.347 154.698 146.248 161.558Z" fill="#FAFAFA"/>
<path d="M158.851 149.314C151.991 149.214 146.347 154.698 146.248 161.558L171.096 161.917C171.195 155.057 165.711 149.413 158.851 149.314Z" fill="#E0E0E0"/>
<path d="M151.104 161.632C151.043 165.813 154.385 169.249 158.561 169.31C162.742 169.37 166.179 166.029 166.24 161.852C166.3 157.671 162.959 154.235 158.782 154.174C154.601 154.109 151.165 157.451 151.104 161.632Z" fill="black"/>
<path d="M183.842 154.633C183.742 154.685 174.528 153.209 174.528 153.209C173.519 154.525 171.979 155.33 170.325 155.408C166.343 155.598 162.452 155.776 159.081 155.923C155.939 156.061 153.502 158.723 153.632 161.865V161.87C153.757 164.843 156.142 167.219 159.115 167.336L178.713 168.106C181.938 168.232 186.218 166.276 188.231 163.752L183.842 154.633Z" fill="black"/>
<path d="M135.696 146.803C135.696 146.803 134.852 129.556 151.061 125.963V123.752H207.842V129.023C207.842 129.023 199.506 139.06 202.228 147.392C204.95 155.728 205.799 156.576 205.799 156.576H238.113C238.113 156.576 242.025 151.642 242.194 144.332C242.363 137.017 239.324 124.513 237.056 116.519C234.992 109.252 233.689 103.171 233.689 103.171L243.384 99.9383C243.384 99.9383 261.324 123.392 262.056 124.713C262.787 126.033 265.28 129.11 264.692 135.849C264.107 142.592 247.985 163.402 243.735 165.743C239.485 168.089 235.676 168.236 231.863 168.821C228.556 169.331 204.089 168.994 197.692 168.894C195.467 168.86 193.273 168.293 191.373 167.141C189.46 165.981 188.019 164.06 186.43 160.909L183.059 154.313L135.696 146.803Z" fill="#FEC54B"/>
<path d="M140.041 145.604L132.887 156.806C131.969 158.238 133.454 160.043 135.012 159.368C135.769 159.039 136.583 158.528 137.41 157.741C140.682 154.629 146.512 146.431 146.512 146.431L140.041 145.604Z" fill="black"/>
<path d="M191.325 147.621C191.321 147.621 191.334 147.565 191.369 147.457C191.403 147.34 191.451 147.184 191.511 146.985C191.633 146.57 191.78 145.951 191.888 145.137C192.07 143.523 191.988 141.06 190.78 138.376C190.191 137.039 189.321 135.671 188.144 134.416C186.963 133.17 185.504 132.018 183.799 131.101C182.102 130.179 180.18 129.452 178.129 128.989C176.073 128.526 173.887 128.318 171.65 128.318C169.412 128.318 167.231 128.517 165.136 128.794C163.041 129.075 161.033 129.422 159.137 129.854C155.35 130.707 152.056 131.967 149.507 133.416C146.949 134.858 145.135 136.433 144.001 137.615C143.43 138.203 143.019 138.692 142.746 139.03C142.616 139.19 142.517 139.32 142.439 139.415C142.37 139.502 142.331 139.545 142.326 139.541C142.326 139.541 142.811 138.762 143.937 137.554C145.053 136.347 146.862 134.745 149.425 133.278C151.978 131.798 155.289 130.517 159.089 129.651C160.989 129.214 163.002 128.859 165.105 128.573C167.205 128.292 169.399 128.089 171.65 128.089C173.9 128.089 176.103 128.301 178.176 128.768C180.25 129.235 182.184 129.971 183.898 130.91C185.617 131.841 187.092 133.014 188.283 134.282C189.469 135.559 190.343 136.948 190.927 138.307C192.126 141.03 192.187 143.523 191.975 145.141C191.853 145.959 191.693 146.583 191.555 146.994C191.485 147.189 191.429 147.344 191.39 147.457C191.351 147.569 191.33 147.621 191.325 147.621Z" fill="black"/>
<path d="M188.053 143.748C188.027 143.739 188.149 143.475 188.265 142.982C188.4 142.488 188.456 141.739 188.33 140.839C188.205 139.935 187.859 138.892 187.274 137.831C186.989 137.299 186.638 136.771 186.227 136.256C185.824 135.736 185.353 135.243 184.82 134.797C183.751 133.901 182.565 133.269 181.444 132.823C180.315 132.386 179.25 132.127 178.345 131.975C177.441 131.824 176.696 131.759 176.186 131.728C175.67 131.698 175.389 131.685 175.389 131.668C175.389 131.659 175.458 131.655 175.597 131.646C175.731 131.642 175.934 131.633 176.19 131.638C176.705 131.642 177.454 131.681 178.371 131.815C179.289 131.945 180.371 132.192 181.522 132.624C182.665 133.07 183.877 133.706 184.967 134.62C185.513 135.078 185.993 135.581 186.404 136.113C186.82 136.637 187.175 137.182 187.46 137.727C188.045 138.809 188.382 139.883 188.49 140.813C188.599 141.739 188.516 142.506 188.352 142.999C188.3 143.254 188.192 143.432 188.144 143.562C188.092 143.687 188.062 143.752 188.053 143.748Z" fill="#F5F5F5"/>
<g opacity="0.4">
<g opacity="0.4">
<g opacity="0.4">
<path opacity="0.4" d="M176.934 128.638C180.107 129.244 182.881 130.382 185.482 132.118C188.084 133.854 190.079 136.316 191.208 139.233C192.342 142.151 192.174 146.016 190.979 148.431L194.991 148.764C196.342 144.258 194.87 138.731 191.624 135.204C187.82 131.066 182.582 128.638 176.934 128.638Z" fill="black"/>
</g>
</g>
</g>
<path d="M175.657 123.752H140.561C138.509 123.752 136.847 122.09 136.847 120.038V97.1207C136.847 95.0691 138.509 93.4071 140.561 93.4071H175.657C177.709 93.4071 179.371 95.0691 179.371 97.1207V120.038C179.371 122.09 177.709 123.752 175.657 123.752Z" fill="black"/>
<path d="M179.371 100.176C179.371 100.237 169.81 100.289 158.02 100.289C146.226 100.289 136.665 100.237 136.665 100.176C136.665 100.116 146.226 100.064 158.02 100.064C169.81 100.064 179.371 100.116 179.371 100.176Z" fill="black"/>
<path d="M207.816 125.76C207.816 125.821 195.056 125.872 179.315 125.872C163.569 125.872 150.814 125.821 150.814 125.76C150.814 125.699 163.573 125.647 179.315 125.647C195.052 125.647 207.816 125.699 207.816 125.76Z" fill="black"/>
<path d="M207.841 123.752C207.841 123.752 208.776 122.635 208.867 121.207C208.958 119.778 208.305 118 206.772 118H187.166C183.989 118 181.414 120.575 181.414 123.752H207.841Z" fill="black"/>
<path d="M233.693 103.171L230.283 96.0603C229.352 94.039 230.092 91.6369 232.005 90.4986L242.203 84.4176C242.735 84.1016 243.345 83.9328 243.964 83.9328H246.167L247.05 98.3066L243.653 99.605L245.804 103.102L233.693 103.171Z" fill="#FEC54B"/>
<path d="M246.202 84.4522C246.202 84.4522 249.69 85.2529 250.127 90.6284C250.565 96.0083 247.05 97.679 247.05 97.679L246.202 84.4522Z" fill="#EBEBEB"/>
<path d="M234.884 93.2729C234.884 93.2729 227.833 96.6143 226.972 97.1639C226.375 97.5448 225.864 98.2114 226.331 99.3843C227.132 101.384 230.426 99.5011 230.426 99.5011L236.987 96.2204C236.987 96.2204 239.51 95.0302 238.58 93.537C237.537 91.8706 234.884 93.2729 234.884 93.2729Z" fill="black"/>
<path d="M224.903 92.0567C224.903 92.0567 231.525 93.1907 232.088 93.3422C232.65 93.4937 234.862 94.5411 234.975 95.2163C235.087 95.8915 234.975 97.8781 234.975 97.8781C234.975 97.8781 234.576 98.2027 234.325 97.5535C234.074 96.9043 234.113 95.6188 234.113 95.6188L232.875 95.1427L233.551 96.3416L233.663 99.1506C233.663 99.1506 232.798 99.0727 232.633 98.3975C232.464 97.7266 232.469 96.9735 232.469 96.9735L231.568 96.2074L232.244 97.1207L232.473 99.1462C232.473 99.1462 231.815 99.3583 231.607 98.9082C231.4 98.4581 231.382 97.1207 231.382 97.1207L228.837 96.2334L227.154 97.1726L224.505 95.7227L224.903 92.0567Z" fill="#FFBE9D"/>
<path d="M235.221 82.8291C235.221 85.5126 233.988 87.6853 232.469 87.6853C230.949 87.6853 229.716 85.5126 229.716 82.8291C229.716 80.1457 230.949 77.973 232.469 77.973C233.988 77.973 235.221 80.15 235.221 82.8291Z" fill="black"/>
<path d="M232.919 86.1661L234.429 91.4075C235.104 91.0656 235.247 90.3904 235.135 89.858C234.754 88.0619 234.542 86.7851 234.122 85.2096C234.074 85.0581 232.919 86.1661 232.919 86.1661Z" fill="black"/>
<g opacity="0.4">
<g opacity="0.4">
<path opacity="0.4" d="M202.977 149.634C202.825 149.201 202.674 148.76 202.531 148.305C202.397 147.881 202.237 147.444 202.124 147.024C201.916 146.271 201.795 145.496 201.748 145.05C199.194 155.447 203.094 162.766 209.785 163.281C219.562 164.034 231.486 164.579 236.308 163.315C245.098 161.008 248.323 153.681 249.093 152.469C249.863 151.261 256.853 138.48 252.569 126.175C248.284 113.871 240.813 100.804 240.813 100.804L233.694 103.176C233.694 103.176 234.996 109.252 237.061 116.524C239.329 124.518 242.367 137.022 242.198 144.336C242.03 151.651 238.117 156.581 238.117 156.581H205.803C205.799 156.576 205.106 155.884 202.977 149.634Z" fill="black"/>
</g>
</g>
<path d="M134.406 144.098L134.635 141.631L193.619 148.426C196.948 148.816 199.263 151.928 198.679 155.23L198.415 156.723L137.366 147.851C135.536 147.587 134.233 145.938 134.406 144.098Z" fill="#FEC54B"/>
<g opacity="0.6">
<g opacity="0.6">
<path opacity="0.6" d="M134.406 144.098L134.635 141.631L193.619 148.426C196.948 148.816 199.263 151.928 198.679 155.23L198.415 156.723L137.366 147.851C135.536 147.587 134.233 145.938 134.406 144.098Z" fill="black"/>
</g>
</g>
<g opacity="0.3">
<g opacity="0.3">
<g opacity="0.3">
<path opacity="0.3" d="M249.093 160.597C249.093 160.597 262.077 146.314 264.757 135.087C265.657 135.078 267.752 135.169 268.777 135.386C268.773 135.386 261.095 156.26 249.093 160.597Z" fill="black"/>
</g>
</g>
</g>
<path d="M264.566 130.058C264.575 130.058 264.596 130.179 264.635 130.417C264.67 130.655 264.739 131.006 264.783 131.46C264.865 132.369 264.921 133.711 264.683 135.338C264.449 136.965 263.891 138.861 262.969 140.826C262.069 142.8 260.822 144.838 259.533 146.972C256.931 151.253 254.036 154.75 251.932 157.251C250.876 158.498 250.002 159.493 249.396 160.182C249.102 160.511 248.868 160.77 248.695 160.965C248.53 161.142 248.444 161.233 248.44 161.229C248.435 161.225 248.509 161.125 248.66 160.935C248.825 160.736 249.05 160.463 249.331 160.121C249.933 159.403 250.772 158.39 251.811 157.148C253.884 154.624 256.75 151.114 259.342 146.855C260.636 144.722 261.878 142.696 262.783 140.74C263.709 138.792 264.276 136.922 264.527 135.316C264.787 133.706 264.757 132.382 264.696 131.473C264.666 131.019 264.609 130.668 264.592 130.426C264.566 130.183 264.558 130.058 264.566 130.058Z" fill="black"/>
<path d="M242.116 160.493C242.073 160.537 241.142 159.697 240.039 158.615C238.935 157.533 238.074 156.62 238.117 156.576C238.16 156.533 239.091 157.373 240.199 158.455C241.302 159.537 242.164 160.45 242.116 160.493Z" fill="black"/>
<path d="M203.583 160.056C203.531 160.03 203.886 159.16 204.535 158.208C205.18 157.251 205.859 156.598 205.898 156.641C205.946 156.685 205.353 157.394 204.721 158.338C204.085 159.273 203.643 160.082 203.583 160.056Z" fill="black"/>
<path d="M178.635 168.301C178.583 168.258 179.566 167.63 180.406 166.051C180.825 165.272 181.167 164.254 181.275 163.086C181.384 161.926 181.215 160.61 180.644 159.39C180.051 158.178 179.137 157.221 178.168 156.572C177.194 155.918 176.19 155.546 175.32 155.382C173.563 155.04 172.459 155.412 172.459 155.343C172.459 155.334 172.524 155.317 172.654 155.287C172.784 155.261 172.97 155.2 173.221 155.178C173.719 155.1 174.459 155.079 175.35 155.23C176.242 155.377 177.281 155.745 178.285 156.403C179.289 157.057 180.237 158.039 180.847 159.294C181.436 160.558 181.6 161.913 181.479 163.107C181.362 164.302 180.99 165.341 180.544 166.128C180.103 166.916 179.618 167.479 179.241 167.816C179.064 167.998 178.899 168.102 178.795 168.189C178.696 168.267 178.64 168.306 178.635 168.301Z" fill="black"/>
<path d="M157.094 163.778C157.033 163.783 156.938 162.848 156.882 161.696C156.826 160.545 156.834 159.61 156.895 159.606C156.956 159.602 157.051 160.532 157.107 161.688C157.163 162.839 157.159 163.778 157.094 163.778Z" fill="black"/>
<path d="M158.661 163.783C158.6 163.791 158.431 162.861 158.284 161.709C158.137 160.554 158.068 159.615 158.128 159.606C158.189 159.597 158.358 160.528 158.505 161.684C158.652 162.83 158.721 163.774 158.661 163.783Z" fill="black"/>
<path d="M182.985 123.752C182.985 123.812 175.813 123.864 166.971 123.864C158.124 123.864 150.952 123.812 150.952 123.752C150.952 123.691 158.124 123.639 166.971 123.639C175.813 123.639 182.985 123.691 182.985 123.752Z" fill="black"/>
<path d="M159.76 123.73C159.7 123.73 159.648 115.515 159.648 105.387C159.648 95.2552 159.7 87.0404 159.76 87.0404C159.821 87.0404 159.873 95.2509 159.873 105.387C159.873 115.515 159.825 123.73 159.76 123.73Z" fill="black"/>
<path d="M155.372 123.7C155.311 123.695 155.618 115.489 156.055 105.366C156.497 95.2422 156.904 87.0361 156.964 87.0404C157.025 87.0447 156.718 95.2509 156.28 105.374C155.839 115.498 155.432 123.704 155.372 123.7Z" fill="black"/>
<path d="M145.438 173.755C145.434 173.759 145.369 173.694 145.248 173.564C145.131 173.43 144.949 173.244 144.742 172.98C144.313 172.465 143.742 171.677 143.145 170.634C141.95 168.57 140.764 165.341 140.777 161.649C140.794 157.953 142.006 154.737 143.218 152.681C143.824 151.642 144.404 150.859 144.833 150.348C145.04 150.084 145.226 149.902 145.343 149.768C145.464 149.638 145.529 149.573 145.534 149.578C145.538 149.582 145.486 149.66 145.378 149.798C145.274 149.941 145.097 150.132 144.902 150.4C144.495 150.928 143.937 151.72 143.357 152.759C142.188 154.819 141.015 158 141.002 161.649C140.989 165.293 142.132 168.487 143.283 170.556C143.854 171.599 144.404 172.396 144.811 172.928C145.006 173.201 145.179 173.395 145.283 173.534C145.391 173.672 145.443 173.746 145.438 173.755Z" fill="black"/>
<path d="M207.443 140.779L207.309 141.034L204.704 145.938L201.051 149.456L208.352 159.177L214.438 158.169C214.438 158.169 213.754 156.78 210.702 156.511L209.534 150.703L213.823 144.055" fill="black"/>
<path d="M201.051 149.452L208.348 159.173L214.433 158.165L213.598 157.364L208.603 157.909L201.825 148.703L201.051 149.452Z" fill="#E0E0E0"/>
<path d="M210.213 153.837C210.179 153.906 209.794 153.767 209.326 153.858C208.854 153.936 208.547 154.204 208.486 154.148C208.421 154.114 208.703 153.689 209.274 153.59C209.85 153.482 210.261 153.78 210.213 153.837Z" fill="black"/>
<path d="M209.876 152.404C209.824 152.456 209.49 152.144 208.993 152.131C208.491 152.114 208.14 152.404 208.092 152.348C208.067 152.322 208.118 152.209 208.274 152.088C208.426 151.967 208.69 151.85 209.001 151.859C209.313 151.867 209.568 152.001 209.711 152.136C209.854 152.265 209.902 152.382 209.876 152.404Z" fill="black"/>
<path d="M209.603 150.539C209.542 150.582 209.274 150.266 208.828 150.192C208.382 150.11 208.023 150.318 207.98 150.253C207.958 150.227 208.023 150.127 208.179 150.036C208.335 149.946 208.59 149.872 208.876 149.924C209.157 149.976 209.374 150.127 209.49 150.266C209.607 150.404 209.633 150.517 209.603 150.539Z" fill="black"/>
<path d="M210.992 148.825C210.923 148.864 210.694 148.543 210.278 148.361C209.867 148.167 209.477 148.206 209.46 148.132C209.43 148.067 209.88 147.881 210.391 148.115C210.901 148.34 211.066 148.803 210.992 148.825Z" fill="black"/>
<path d="M211.577 147.444C211.551 147.47 211.308 147.258 210.94 146.894C210.733 146.682 210.521 146.466 210.304 146.249C210.192 146.12 210.049 146.016 209.941 145.804C209.889 145.695 209.871 145.561 209.915 145.427C209.954 145.289 210.114 145.176 210.248 145.176C210.521 145.172 210.689 145.284 210.867 145.375C211.036 145.479 211.183 145.604 211.308 145.734C211.555 146.003 211.698 146.301 211.772 146.561C211.919 147.089 211.793 147.427 211.772 147.414C211.724 147.409 211.771 147.085 211.59 146.622C211.499 146.392 211.352 146.137 211.127 145.907C211.014 145.795 210.88 145.691 210.733 145.604C210.59 145.522 210.404 145.436 210.274 145.444C210.213 145.453 210.187 145.475 210.17 145.518C210.153 145.565 210.157 145.635 210.183 145.691C210.239 145.817 210.378 145.946 210.49 146.076C210.694 146.31 210.889 146.535 211.083 146.76C211.412 147.158 211.607 147.418 211.577 147.444Z" fill="black"/>
<path d="M211.828 147.587C211.797 147.591 211.767 147.266 212.035 146.847C212.299 146.448 212.94 145.959 213.784 146.223C213.849 146.262 213.905 146.34 213.914 146.427C213.922 146.513 213.901 146.578 213.871 146.63C213.814 146.738 213.741 146.795 213.684 146.86C213.559 146.981 213.429 147.089 213.295 147.176C213.031 147.353 212.763 147.466 212.533 147.53C212.07 147.66 211.767 147.617 211.771 147.587C211.767 147.543 212.057 147.518 212.473 147.349C212.68 147.266 212.918 147.145 213.152 146.968C213.269 146.881 213.386 146.782 213.498 146.669C213.555 146.609 213.611 146.552 213.633 146.505C213.654 146.448 213.65 146.461 213.637 146.448C213.615 146.431 213.529 146.418 213.451 146.414C213.373 146.41 213.295 146.409 213.221 146.418C213.07 146.431 212.927 146.47 212.793 146.522C212.529 146.626 212.33 146.795 212.191 146.964C211.914 147.301 211.871 147.595 211.828 147.587Z" fill="black"/>
<path d="M205.872 148.461C205.937 148.859 205.669 149.236 205.271 149.305C204.872 149.37 204.496 149.102 204.427 148.703C204.362 148.305 204.63 147.929 205.028 147.859C205.426 147.794 205.803 148.063 205.872 148.461Z" fill="#E0E0E0"/>
<path d="M229.603 145.453L231.555 158.126L247.336 155.78C247.02 154.287 238.403 152.473 238.403 152.473L237.485 144.302L229.603 145.453Z" fill="black"/>
<path d="M233.425 152.516C233.131 152.646 232.971 153.019 233.088 153.317C233.204 153.616 233.585 153.78 233.88 153.659C234.174 153.534 234.382 153.092 234.23 152.806C234.079 152.525 233.624 152.352 233.369 152.542" fill="#E0E0E0"/>
<path d="M231.555 158.126L231.408 156.84L246.596 155.07C246.596 155.07 247.344 155.269 247.34 155.78L231.555 158.126Z" fill="#E0E0E0"/>
<path d="M238.649 152.356C238.658 152.434 238.277 152.525 237.935 152.832C237.585 153.127 237.437 153.49 237.364 153.469C237.29 153.464 237.338 152.988 237.758 152.625C238.173 152.261 238.654 152.283 238.649 152.356Z" fill="black"/>
<path d="M240.406 152.793C240.437 152.867 240.121 153.044 239.909 153.412C239.684 153.772 239.671 154.135 239.593 154.139C239.524 154.161 239.402 153.72 239.675 153.27C239.943 152.819 240.393 152.72 240.406 152.793Z" fill="black"/>
<path d="M241.64 154.633C241.571 154.659 241.406 154.291 241.545 153.841C241.675 153.386 242.016 153.166 242.055 153.226C242.107 153.283 241.908 153.542 241.804 153.919C241.688 154.287 241.718 154.616 241.64 154.633Z" fill="black"/>
<path d="M238.234 150.517C238.212 150.59 237.844 150.539 237.411 150.634C236.979 150.72 236.663 150.915 236.611 150.854C236.559 150.807 236.844 150.469 237.355 150.365C237.866 150.257 238.26 150.448 238.234 150.517Z" fill="black"/>
<path d="M237.58 148.699C237.585 148.729 237.29 148.825 236.788 148.812C236.541 148.807 236.243 148.768 235.923 148.682C235.762 148.638 235.598 148.582 235.433 148.509C235.356 148.474 235.26 148.439 235.165 148.357C235.066 148.288 234.988 148.093 235.07 147.955C235.135 147.82 235.269 147.747 235.382 147.73C235.498 147.708 235.594 147.717 235.684 147.725C235.866 147.743 236.039 147.777 236.199 147.82C236.52 147.911 236.792 148.05 237 148.188C237.416 148.474 237.585 148.742 237.559 148.76C237.528 148.79 237.312 148.574 236.901 148.353C236.693 148.24 236.433 148.132 236.135 148.058C235.983 148.024 235.827 147.998 235.658 147.985C235.485 147.968 235.343 147.985 235.312 148.067C235.299 148.097 235.299 148.11 235.343 148.154C235.386 148.193 235.459 148.227 235.537 148.262C235.689 148.331 235.845 148.392 235.992 148.439C236.286 148.535 236.563 148.591 236.801 148.617C237.273 148.682 237.572 148.656 237.58 148.699Z" fill="black"/>
<path d="M237.494 148.825C237.468 148.842 237.273 148.587 237.173 148.093C237.121 147.846 237.104 147.543 237.152 147.21C237.178 147.046 237.217 146.873 237.282 146.699C237.351 146.531 237.433 146.306 237.727 146.223C237.883 146.193 238.03 146.297 238.091 146.396C238.16 146.496 238.182 146.587 238.216 146.673C238.273 146.855 238.294 147.033 238.294 147.206C238.294 147.548 238.199 147.851 238.078 148.071C237.831 148.526 237.524 148.664 237.511 148.643C237.481 148.608 237.727 148.418 237.905 147.989C237.991 147.777 238.056 147.509 238.043 147.21C238.039 147.063 238.013 146.907 237.961 146.756C237.913 146.591 237.827 146.466 237.766 146.492C237.688 146.5 237.572 146.647 237.528 146.79C237.468 146.942 237.424 147.098 237.394 147.249C237.338 147.548 237.333 147.829 237.359 148.058C237.411 148.53 237.537 148.807 237.494 148.825Z" fill="black"/>
<path d="M217.186 115.684L203.648 145.176L212.589 150.543L231.3 115.056" fill="black"/>
<path d="M239.502 151.214L229.789 152.772L223.977 118.086L195.26 120.168C194.498 120.216 193.732 120.151 192.996 119.947C184.928 117.736 186.023 107.456 186.798 105.807L226.535 104.665C230.846 104.539 234.559 107.677 235.156 111.949L239.502 151.214Z" fill="black"/>
<path d="M186.409 107.439L186.551 92.7752C186.551 92.7752 184.66 83.2403 184.097 79.4921C183.227 73.6708 182.037 70.9094 191.568 66.7717L193.65 65.9667L196.874 66.01C200.722 66.3 204.773 69.7755 204.864 72.0824L208.573 105.128L186.409 107.439Z" fill="#FEC54B"/>
<path d="M187.006 70.1823C187.006 70.1823 184.318 75.9733 184.855 81.2493L194.883 90.8751C197.134 93.3768 199.943 94.4415 203.539 94.6579L224.288 96.9259L224.864 91.4984L205.123 85.9064C204.34 85.7636 203.946 84.9412 203.345 84.4175L187.006 70.1823Z" fill="#FEC54B"/>
<path d="M185.387 71.853C185.387 71.853 185.5 71.7275 185.785 71.5846C186.071 71.4461 186.521 71.3033 187.127 71.2081C187.729 71.1215 188.49 71.0566 189.369 71.2124C189.585 71.2643 189.815 71.3163 190.027 71.4375C190.235 71.5587 190.434 71.7015 190.637 71.853C191.04 72.1646 191.442 72.5195 191.849 72.9134C192.68 73.6881 193.468 74.6706 194.39 75.6661C195.307 76.6659 196.32 77.7306 197.419 78.8516C198.514 79.9726 199.696 81.1455 200.964 82.3574C201.6 82.959 202.254 83.5736 202.946 84.1752C203.297 84.4652 203.643 84.8028 203.977 85.1187C204.314 85.4303 204.699 85.7203 205.141 85.8026H205.145H205.149C211.018 87.4602 217.753 89.3646 224.89 91.3859L224.981 91.4118L224.972 91.5071C224.933 91.8923 224.886 92.3078 224.842 92.7233C224.691 94.1645 224.54 95.5928 224.397 96.9345L224.384 97.0471L224.271 97.0341C221.254 96.7008 218.316 96.3805 215.489 96.0689C214.074 95.9131 212.689 95.7616 211.334 95.6101C209.975 95.4716 208.651 95.3375 207.357 95.2076C206.063 95.0648 204.808 94.9176 203.591 94.7402C202.375 94.5627 201.194 94.3377 200.107 93.9308C199.016 93.5326 198.043 92.9613 197.168 92.3554C196.29 91.7451 195.493 91.1089 194.745 90.4813C191.78 87.9493 189.603 85.69 188.092 84.1492C187.343 83.3745 186.768 82.7642 186.383 82.3487C186.197 82.1453 186.054 81.9851 185.95 81.8726C185.855 81.7644 185.807 81.7038 185.807 81.7038C185.807 81.7038 185.863 81.7514 185.963 81.8553C186.071 81.9635 186.218 82.1193 186.413 82.3184C186.815 82.7296 187.4 83.3269 188.149 84.093C189.676 85.6165 191.871 87.8584 194.84 90.3688C195.589 90.9877 196.389 91.6196 197.264 92.2212C198.134 92.8228 199.094 93.3811 200.168 93.7663C201.241 94.1645 202.405 94.3809 203.622 94.5541C204.833 94.7272 206.089 94.8743 207.383 95.0128C208.677 95.1427 210.001 95.2725 211.36 95.4067C212.715 95.5539 214.104 95.7053 215.515 95.8568C218.342 96.1641 221.28 96.4844 224.301 96.8134L224.176 96.9129C224.319 95.5712 224.47 94.1429 224.622 92.7016C224.665 92.2861 224.708 91.8706 224.752 91.4854L224.834 91.6066C217.697 89.581 210.966 87.668 205.097 86.0017L205.106 86.006C204.595 85.9108 204.189 85.5905 203.842 85.2702C203.492 84.9369 203.176 84.6253 202.817 84.3267C202.124 83.7207 201.466 83.1018 200.83 82.4959C199.566 81.2797 198.389 80.0981 197.294 78.9728C196.203 77.8474 195.195 76.7784 194.277 75.7699C193.355 74.7658 192.581 73.7833 191.762 73.0086C191.36 72.6147 190.962 72.2555 190.568 71.9482C190.369 71.7967 190.174 71.6496 189.975 71.5327C189.78 71.4158 189.555 71.3639 189.347 71.312C188.49 71.1475 187.729 71.2038 187.131 71.2773C186.53 71.3596 186.08 71.4894 185.794 71.6193C185.513 71.7448 185.391 71.8616 185.387 71.853Z" fill="black"/>
<path d="M190.564 53.2508L191.572 67.525C191.737 69.8535 193.676 71.6627 196.013 71.6627C198.584 71.6627 200.622 69.4856 200.453 66.919C200.363 65.56 200.285 64.4477 200.285 64.4477C200.285 64.4477 203.738 63.911 203.782 60.4571C203.808 58.4619 203.461 53.9346 203.167 50.4635C202.968 48.1176 201.003 46.3171 198.649 46.3171H196.562C192.966 46.5292 190.256 49.6671 190.564 53.2508Z" fill="#FFBE9D"/>
<path d="M200.289 64.4001C200.289 64.4001 198.103 64.5775 195.783 63.119C195.783 63.119 196.848 65.6076 200.298 65.296L200.289 64.4001Z" fill="#EB996E"/>
<path d="M202.388 54.9041C202.397 55.1638 202.185 55.3888 201.912 55.4018C201.639 55.4148 201.414 55.2157 201.401 54.956C201.393 54.6963 201.605 54.4713 201.877 54.4583C202.15 54.4453 202.379 54.6444 202.388 54.9041Z" fill="black"/>
<path d="M202.57 53.9302C202.509 53.9952 202.137 53.7182 201.605 53.7182C201.072 53.7138 200.683 53.9865 200.627 53.9216C200.596 53.8913 200.661 53.7788 200.83 53.6532C200.999 53.532 201.28 53.4109 201.613 53.4109C201.942 53.4109 202.224 53.5364 202.384 53.6576C202.544 53.7874 202.6 53.8999 202.57 53.9302Z" fill="black"/>
<path d="M197.402 54.9041C197.411 55.1638 197.199 55.3888 196.926 55.4018C196.653 55.4148 196.428 55.2157 196.415 54.956C196.407 54.6963 196.619 54.4713 196.891 54.4583C197.164 54.4453 197.393 54.6444 197.402 54.9041Z" fill="black"/>
<path d="M197.35 54.0298C197.29 54.0947 196.913 53.8177 196.385 53.8177C195.853 53.8134 195.463 54.086 195.407 54.0211C195.376 53.9908 195.441 53.8783 195.61 53.7528C195.779 53.6316 196.06 53.5104 196.394 53.5104C196.723 53.5104 197.004 53.6359 197.164 53.7571C197.324 53.8826 197.38 53.9995 197.35 54.0298Z" fill="black"/>
<path d="M199.276 57.9684C199.272 57.9381 199.605 57.8818 200.137 57.8126C200.272 57.7996 200.401 57.7736 200.423 57.6784C200.453 57.5789 200.397 57.436 200.332 57.2759C200.207 56.9469 200.072 56.605 199.93 56.2415C199.371 54.7699 198.969 53.5623 199.029 53.5407C199.09 53.5191 199.588 54.692 200.146 56.1636C200.28 56.5271 200.41 56.8734 200.531 57.2023C200.583 57.3581 200.67 57.5312 200.601 57.7347C200.566 57.8342 200.466 57.9078 200.375 57.9338C200.289 57.9597 200.211 57.9597 200.146 57.9641C199.614 57.9944 199.28 57.9987 199.276 57.9684Z" fill="black"/>
<path d="M197.714 58.3363C197.8 58.3319 197.8 58.9076 198.294 59.3188C198.787 59.7299 199.402 59.665 199.406 59.7429C199.415 59.7775 199.268 59.8555 199.008 59.8598C198.752 59.8684 198.38 59.7862 198.082 59.5352C197.779 59.2841 197.653 58.9509 197.632 58.7128C197.61 58.4748 197.675 58.3319 197.714 58.3363Z" fill="black"/>
<path d="M197.489 51.948C197.437 52.0908 196.904 52.0259 196.281 52.0995C195.658 52.1601 195.156 52.3462 195.074 52.2164C195.035 52.1558 195.125 52.0173 195.329 51.8788C195.528 51.7403 195.853 51.6061 196.225 51.5628C196.597 51.5239 196.943 51.5801 197.168 51.6753C197.398 51.7662 197.51 51.8788 197.489 51.948Z" fill="black"/>
<path d="M202.375 52.3937C202.28 52.5149 201.916 52.3894 201.475 52.3851C201.033 52.3635 200.661 52.4673 200.579 52.3418C200.54 52.2812 200.601 52.16 200.761 52.0475C200.921 51.935 201.189 51.8397 201.492 51.8484C201.795 51.8571 202.055 51.9653 202.211 52.0908C202.366 52.212 202.418 52.3332 202.375 52.3937Z" fill="black"/>
<path d="M191.728 55.8477C191.667 55.8217 189.352 55.1465 189.43 57.5097C189.503 59.8728 191.862 59.3102 191.862 59.2409C191.866 59.1673 191.728 55.8477 191.728 55.8477Z" fill="#FFBE9D"/>
<path d="M191.113 58.3667C191.105 58.358 191.074 58.397 191.005 58.4316C190.94 58.4662 190.823 58.4879 190.698 58.4489C190.447 58.3667 190.222 57.9771 190.196 57.5487C190.183 57.3322 190.222 57.1288 190.291 56.9557C190.356 56.7826 190.464 56.6571 190.59 56.6311C190.715 56.5965 190.806 56.67 190.836 56.735C190.871 56.7999 190.858 56.8475 190.871 56.8518C190.88 56.8561 190.918 56.8085 190.897 56.7133C190.884 56.6657 190.858 56.6138 190.797 56.5662C190.741 56.5229 190.654 56.5012 190.568 56.5142C190.386 56.5315 190.226 56.7047 190.148 56.8951C190.062 57.0855 190.014 57.3149 190.027 57.5573C190.057 58.0334 190.317 58.4705 190.659 58.5571C190.828 58.5961 190.962 58.5398 191.031 58.4835C191.109 58.4229 191.122 58.371 191.113 58.3667Z" fill="#EB996E"/>
<path d="M190.416 55.7654C190.776 55.6788 191.399 56.0121 191.555 56.3497C191.711 56.6873 191.741 57.0681 191.897 57.4057C192.048 57.7433 192.394 58.0506 192.758 57.9641C193.005 57.9035 193.186 57.6741 193.251 57.4231C193.316 57.1763 193.29 56.9167 193.26 56.6613C193.122 55.5576 192.888 54.4626 192.845 53.3546C192.801 52.2423 192.957 51.091 193.541 50.1431C194.126 49.1953 195.195 48.4984 196.303 48.5893C197.039 48.6499 197.709 49.0308 198.441 49.1347C199.306 49.2559 200.22 48.9486 200.839 48.334C200.917 48.2561 201.289 48.0137 201.289 48.0137C201.289 47.9574 201.237 47.464 201.042 47.2822C199.596 45.9448 196.987 45.5726 195.078 46.053C193.165 46.5335 191.373 47.8838 190.551 49.6757C189.72 51.4632 189.962 53.9519 190.416 55.7654Z" fill="black"/>
<path d="M203.206 49.931C203.206 49.931 194.143 47.0139 190.222 54.8564C190.222 54.8564 189.637 52.8958 189.637 51.8441C189.637 51.1429 190.057 46.9576 194.364 45.6418C194.359 45.6418 200.847 43.1661 203.206 49.931Z" fill="#FEC54B"/>
<path d="M195.415 50.1301C195.736 50.6495 196.307 51.0001 196.913 51.0563C197.519 51.1126 198.147 50.8659 198.553 50.4158C198.731 50.8616 199.211 51.1689 199.692 51.1429C200.172 51.1169 200.618 50.762 200.748 50.2989C201.012 50.5543 201.284 50.8183 201.631 50.9438C201.977 51.0693 202.41 51.0217 202.639 50.7317C202.869 50.4374 202.804 49.9916 202.579 49.693C202.353 49.3943 202.003 49.2169 201.661 49.074C200.583 48.6239 199.397 48.3989 198.242 48.5547C197.086 48.7105 195.965 49.2731 195.242 50.1864" fill="black"/>
<g opacity="0.4">
<g opacity="0.4">
<g opacity="0.4">
<g opacity="0.4">
<path opacity="0.4" d="M203.206 49.931C203.206 49.931 202.176 48.7018 200.324 48.6239C197.649 48.5071 192.645 50.0089 190.222 54.8608C190.222 54.8608 189.637 52.9001 189.637 51.8484C189.637 51.1472 190.057 46.9619 194.364 45.6462C194.359 45.6418 200.847 43.1661 203.206 49.931Z" fill="black"/>
</g>
</g>
</g>
</g>
<path d="M190.598 53.9388C191.944 51.883 193.797 50.182 195.879 48.8792C197.96 47.5765 201.406 46.291 203.782 45.6591C204.496 45.4687 205.236 45.3042 205.963 45.4297C206.69 45.5552 207.4 46.04 207.582 46.7541C207.807 47.6501 206.218 49.0307 205.474 49.5718C204.73 50.1128 203.206 50.9135 203.206 50.9135C203.206 50.9135 203.228 49.2515 200.57 48.9095C196.952 48.4508 190.598 53.9388 190.598 53.9388Z" fill="#FEC54B"/>
<g opacity="0.3">
<g opacity="0.3">
<g opacity="0.3">
<path opacity="0.3" d="M187.408 83.3918C188.343 85.6468 189.287 88.4298 190.642 90.4597C191.996 92.4895 193.805 94.2901 196.06 95.2336C198.887 96.4152 202.232 96.6099 205.046 95.3937C205.275 95.2942 205.725 95.1687 205.682 94.922C205.682 94.922 204.751 94.8181 204.461 94.7705C198.774 93.8096 198.159 93.1085 195.437 90.9574C193.74 89.62 189.979 85.5645 187.408 83.3918Z" fill="black"/>
</g>
</g>
</g>
<path d="M205.478 99.8128C205.491 99.8171 205.418 100.012 205.24 100.341C205.067 100.67 204.769 101.124 204.323 101.622C203.44 102.626 201.873 103.712 199.917 104.314C197.965 104.916 196.112 105.024 194.792 105.08C194.13 105.106 193.593 105.11 193.225 105.11C192.853 105.11 192.65 105.102 192.65 105.084C192.65 105.067 192.853 105.05 193.221 105.024C193.637 104.998 194.16 104.963 194.784 104.924C196.095 104.829 197.93 104.691 199.852 104.102C201.769 103.509 203.314 102.47 204.206 101.514C205.115 100.562 205.435 99.7868 205.478 99.8128Z" fill="black"/>
<path d="M229.967 153.806C229.963 153.806 229.95 153.763 229.932 153.672C229.911 153.573 229.885 153.438 229.854 153.274C229.789 152.91 229.694 152.395 229.577 151.737C229.344 150.387 229.006 148.461 228.595 146.085C227.785 141.298 226.669 134.706 225.435 127.426C224.886 124.133 224.362 120.977 223.882 118.099L223.994 118.186C218.952 118.554 214.637 118.87 211.568 119.095C210.053 119.198 208.846 119.281 208.002 119.337C207.599 119.359 207.283 119.38 207.049 119.393C206.95 119.398 206.868 119.402 206.803 119.402C206.746 119.402 206.72 119.402 206.72 119.398C206.72 119.393 206.746 119.389 206.803 119.38C206.868 119.372 206.95 119.363 207.045 119.354C207.274 119.333 207.59 119.302 207.993 119.263C208.837 119.19 210.044 119.09 211.555 118.96C214.619 118.718 218.93 118.372 223.972 117.969L224.068 117.961L224.085 118.056C224.57 120.93 225.102 124.085 225.656 127.379C226.864 134.663 227.959 141.259 228.751 146.05C229.136 148.431 229.448 150.361 229.664 151.711C229.763 152.369 229.846 152.884 229.902 153.252C229.924 153.421 229.945 153.551 229.958 153.655C229.967 153.759 229.967 153.806 229.967 153.806Z" fill="black"/>
<path d="M226.894 114.996C226.933 115.048 226.18 115.697 225.319 116.571C224.457 117.441 223.821 118.212 223.769 118.168C223.721 118.134 224.284 117.294 225.158 116.411C226.033 115.528 226.859 114.948 226.894 114.996Z" fill="black"/>
<path d="M200.367 67.2261C200.375 67.2261 200.393 67.2737 200.419 67.3689C200.449 67.4642 200.475 67.607 200.501 67.7931C200.544 68.1653 200.523 68.728 200.289 69.3685C200.055 70.0004 199.601 70.7103 198.865 71.2426C198.133 71.775 197.121 72.052 196.086 71.9827C195.048 71.9135 194.095 71.524 193.39 70.9743C192.676 70.4289 192.187 69.7711 191.858 69.1868C191.533 68.5938 191.36 68.0788 191.273 67.7152C191.23 67.5334 191.2 67.3906 191.187 67.2954C191.174 67.2001 191.169 67.1482 191.178 67.1439C191.226 67.1266 191.334 67.9705 192 69.1088C192.338 69.6672 192.827 70.2948 193.52 70.8098C194.204 71.3292 195.117 71.6928 196.108 71.762C197.095 71.8269 198.051 71.5672 198.752 71.0738C199.458 70.5847 199.908 69.9139 200.15 69.3123C200.388 68.7063 200.44 68.1653 200.423 67.8018C200.397 67.4339 200.341 67.2348 200.367 67.2261Z" fill="black"/>
<path d="M206.47 86.1271C206.452 86.1271 206.422 85.967 206.379 85.677C206.331 85.3351 206.27 84.9239 206.205 84.4392C206.063 83.3355 205.877 81.9159 205.673 80.3491C205.478 78.7477 205.323 77.2977 205.227 76.246C205.18 75.718 205.145 75.2938 205.128 74.9995C205.11 74.7052 205.106 74.5407 205.123 74.5407C205.141 74.5407 205.171 74.7009 205.214 74.9908C205.262 75.3328 205.318 75.7439 205.383 76.2287C205.522 77.3324 205.699 78.752 205.894 80.3231C206.089 81.9202 206.262 83.3701 206.361 84.4219C206.413 84.9499 206.448 85.374 206.465 85.6684C206.482 85.9627 206.487 86.1271 206.47 86.1271Z" fill="black"/>
</svg>
