<svg width="263" height="338" viewBox="0 0 263 338" fill="none" xmlns="http://www.w3.org/2000/svg">
<path d="M23.3975 151.935C22.3519 153.157 20.5248 153.312 19.3201 152.281C18.1154 151.25 17.9863 149.421 19.0319 148.2C20.0775 146.978 21.9045 146.823 23.1092 147.853C24.3139 148.884 24.4431 150.713 23.3975 151.935Z" fill="#5186F2"/>
<path d="M37.2665 248.299C36.258 249.171 34.7411 249.072 33.8814 248.077C33.0217 247.083 33.1426 245.568 34.1511 244.696C35.1596 243.824 36.6765 243.923 37.5362 244.917C38.3959 245.912 38.275 247.427 37.2665 248.299Z" fill="#5186F2"/>
<path d="M98.4901 271.773C97.4584 272.337 96.1688 271.97 95.6121 270.953C95.0553 269.936 95.4409 268.651 96.4726 268.087C97.5043 267.522 98.7939 267.889 99.3506 268.906C99.9074 269.924 99.5217 271.208 98.4901 271.773Z" fill="#5186F2"/>
<path d="M128.272 243.338C126.792 244.154 124.937 243.631 124.132 242.171C123.328 240.712 123.877 238.864 125.357 238.048C126.838 237.233 128.693 237.755 129.497 239.215C130.301 240.674 129.752 242.522 128.272 243.338Z" fill="#5186F2"/>
<path d="M140.407 268.676C139.075 269.717 137.161 269.496 136.135 268.183C135.109 266.87 135.357 264.958 136.689 263.918C138.021 262.877 139.935 263.098 140.961 264.411C141.988 265.724 141.739 267.636 140.407 268.676Z" fill="#5186F2"/>
<path d="M230.004 300.742C228.776 301.904 226.849 301.864 225.704 300.654C224.558 299.443 224.625 297.517 225.853 296.355C227.081 295.194 229.008 295.233 230.153 296.444C231.299 297.655 231.232 299.581 230.004 300.742Z" fill="#5186F2"/>
<path d="M65.8611 307.638C64.3015 308.289 62.5135 307.57 61.871 306.032C61.2285 304.495 61.9732 302.717 63.5329 302.065C65.0926 301.414 66.8805 302.133 67.523 303.671C68.1655 305.209 67.4208 306.986 65.8611 307.638Z" fill="#5186F2"/>
<path d="M94.467 290.586C93.117 291.603 91.2066 291.348 90.2038 290.017C89.201 288.686 89.4829 286.779 90.8329 285.762C92.183 284.745 94.0933 285 95.0962 286.331C96.099 287.662 95.8171 289.568 94.467 290.586Z" fill="#5186F2"/>
<path d="M15.4982 246.795C13.8747 247.266 12.1799 246.348 11.7161 244.747C11.2522 243.147 12.1938 241.465 13.8174 240.995C15.4409 240.524 17.1357 241.442 17.5995 243.043C18.0634 244.643 17.1218 246.325 15.4982 246.795Z" fill="#5186F2"/>
<path d="M14.4967 219.398C12.8749 218.922 11.9397 217.236 12.4095 215.638C12.8794 214.039 14.5776 213.127 16.1994 213.604C17.8211 214.081 18.7564 215.766 18.2865 217.365C17.8167 218.963 16.1184 219.875 14.4967 219.398Z" fill="#5186F2"/>
<path d="M49.616 264.273C47.9311 264.138 46.6715 262.679 46.8049 261.018C46.9383 259.357 48.4147 258.118 50.0996 258.253C51.7845 258.389 53.0441 259.847 52.9107 261.509C52.7773 263.17 51.3009 264.409 49.616 264.273Z" fill="#5186F2"/>
<path d="M243.961 204.921C242.408 205.589 240.613 204.888 239.954 203.357C239.296 201.826 240.022 200.041 241.574 199.373C243.127 198.705 244.923 199.406 245.581 200.937C246.24 202.467 245.514 204.253 243.961 204.921Z" fill="#5186F2"/>
<path d="M244.585 131.495C243.235 132.512 241.324 132.258 240.321 130.927C239.319 129.596 239.601 127.689 240.951 126.672C242.301 125.655 244.211 125.91 245.214 127.241C246.217 128.572 245.935 130.478 244.585 131.495Z" fill="#5186F2"/>
<path d="M197.977 29.8947C197.391 31.4803 195.646 32.2987 194.083 31.7212C192.52 31.1436 191.726 29.3873 192.312 27.8017C192.898 26.2162 194.642 25.3978 196.206 25.9753C197.769 26.5529 198.563 28.3092 197.977 29.8947Z" fill="#5186F2"/>
<path d="M182.894 83.9159C182.092 85.1722 180.436 85.5503 179.197 84.7597C177.959 83.9691 177.604 82.3073 178.406 81.051C179.208 79.7948 180.864 79.4167 182.103 80.2073C183.342 80.9978 183.696 82.6597 182.894 83.9159Z" fill="#5186F2"/>
<path d="M103.818 169.55C103.132 170.392 101.9 170.527 101.069 169.851C100.238 169.174 100.121 167.941 100.807 167.098C101.493 166.255 102.725 166.12 103.556 166.797C104.387 167.473 104.504 168.707 103.818 169.55Z" fill="#5186F2"/>
<path d="M124.331 1.90077C124.694 2.92515 124.169 4.04748 123.159 4.40542C122.149 4.76335 121.034 4.22225 120.671 3.19787C120.308 2.1735 120.833 1.05116 121.843 0.693229C122.853 0.335294 123.968 0.876393 124.331 1.90077Z" fill="#5186F2"/>
<path d="M151.628 86.7453C151.325 87.789 150.244 88.3939 149.215 88.0952C148.186 87.7964 147.596 86.7065 147.899 85.6628C148.202 84.619 149.284 84.0142 150.313 84.3129C151.342 84.6116 151.931 85.7016 151.628 86.7453Z" fill="#5186F2"/>
<path d="M166.005 89.9736C165.253 90.7585 164.015 90.794 163.241 90.0528C162.467 89.3117 162.449 88.0726 163.201 87.2878C163.953 86.5029 165.191 86.4674 165.965 87.2085C166.739 87.9497 166.757 89.1887 166.005 89.9736Z" fill="#5186F2"/>
<path d="M219.69 98.5554C218.86 99.2563 217.624 99.1604 216.933 98.3415C216.242 97.5226 216.356 96.2886 217.186 95.5878C218.017 94.8869 219.252 94.9828 219.943 95.8017C220.634 96.6206 220.521 97.8546 219.69 98.5554Z" fill="#5186F2"/>
<path d="M123.138 174.095C122.587 175.032 121.389 175.35 120.466 174.806C119.543 174.262 119.241 173.06 119.793 172.124C120.345 171.188 121.542 170.869 122.465 171.413C123.389 171.957 123.69 173.159 123.138 174.095Z" fill="#5186F2"/>
<path d="M123.947 175.525C123.449 175.899 122.746 175.806 122.377 175.315C122.007 174.825 122.111 174.123 122.608 173.748C123.105 173.374 123.809 173.467 124.178 173.958C124.548 174.448 124.444 175.15 123.947 175.525Z" fill="#5186F2"/>
<path d="M124.388 99.0107C124.36 99.6326 123.839 100.115 123.226 100.087C122.613 100.059 122.138 99.5308 122.166 98.9088C122.195 98.2869 122.716 97.8048 123.329 97.8329C123.942 97.8611 124.417 98.3888 124.388 99.0107Z" fill="#5186F2"/>
<path d="M80.3337 227.838C80.1389 228.429 79.5074 228.753 78.9244 228.561C78.3414 228.369 78.0263 227.733 78.2211 227.142C78.4159 226.551 79.0474 226.227 79.6303 226.419C80.2133 226.611 80.5285 227.247 80.3337 227.838Z" fill="#5186F2"/>
<path d="M17.7194 250.485C17.1815 250.798 16.4939 250.622 16.185 250.092C15.8761 249.561 16.062 248.876 16.6 248.563C17.138 248.25 17.8256 248.426 18.1345 248.956C18.4434 249.487 18.2574 250.172 17.7194 250.485Z" fill="#5186F2"/>
<path d="M134.127 294.066C133.63 294.441 132.926 294.347 132.557 293.857C132.187 293.366 132.291 292.664 132.789 292.289C133.286 291.915 133.989 292.009 134.359 292.499C134.728 292.989 134.624 293.691 134.127 294.066Z" fill="#5186F2"/>
<path d="M166.185 253.389C165.888 253.936 165.209 254.143 164.669 253.851C164.13 253.558 163.932 252.876 164.229 252.329C164.526 251.782 165.205 251.575 165.744 251.867C166.284 252.16 166.481 252.842 166.185 253.389Z" fill="#5186F2"/>
<path d="M172.774 146.97C173.034 147.535 172.793 148.203 172.236 148.46C171.678 148.716 171.014 148.465 170.754 147.9C170.493 147.334 170.734 146.667 171.292 146.41C171.85 146.154 172.514 146.404 172.774 146.97Z" fill="#5186F2"/>
<path d="M211.182 210.875C211.184 211.498 210.687 212.005 210.073 212.007C209.459 212.009 208.959 211.505 208.957 210.882C208.955 210.26 209.452 209.753 210.066 209.751C210.68 209.749 211.18 210.253 211.182 210.875Z" fill="#5186F2"/>
<path d="M215.221 153.182C215.481 153.747 215.24 154.415 214.683 154.671C214.125 154.928 213.461 154.677 213.201 154.112C212.94 153.546 213.181 152.879 213.739 152.622C214.297 152.365 214.961 152.616 215.221 153.182Z" fill="#5186F2"/>
<path d="M118.512 73.3757C118.425 73.9922 117.862 74.4233 117.254 74.3378C116.646 74.2523 116.223 73.6824 116.309 73.0659C116.396 72.4494 116.96 72.0183 117.568 72.1037C118.176 72.1892 118.599 72.7592 118.512 73.3757Z" fill="#5186F2"/>
<path d="M118.439 54.7761C118.203 55.352 117.55 55.6303 116.982 55.3972C116.414 55.164 116.145 54.5072 116.382 53.9313C116.618 53.3554 117.271 53.0771 117.839 53.3102C118.407 53.5434 118.676 54.2002 118.439 54.7761Z" fill="#5186F2"/>
<path d="M206.89 102.396C206.451 102.838 205.741 102.845 205.306 102.412C204.871 101.979 204.873 101.27 205.312 100.828C205.751 100.387 206.461 100.379 206.896 100.812C207.332 101.245 207.329 101.955 206.89 102.396Z" fill="#5186F2"/>
<path d="M208.587 61.2896C208.523 61.9088 207.975 62.3598 207.364 62.2961C206.754 62.2324 206.311 61.6779 206.375 61.0587C206.44 60.4395 206.988 59.9885 207.598 60.0522C208.209 60.1159 208.652 60.6704 208.587 61.2896Z" fill="#5186F2"/>
<path d="M73.3147 25.9798C73.3001 26.6022 72.7899 27.0958 72.1763 27.0813C71.5627 27.0669 71.0764 26.5498 71.091 25.9274C71.1057 25.305 71.6158 24.8114 72.2295 24.8259C72.8431 24.8403 73.3294 25.3574 73.3147 25.9798Z" fill="#5186F2"/>
<path d="M84.6344 65.1239C84.4187 65.7079 83.776 66.0093 83.2003 65.7966C82.6245 65.5839 82.3322 64.937 82.548 64.353C82.7638 63.769 83.4064 63.4676 83.9822 63.6803C84.5579 63.8931 84.8502 64.5399 84.6344 65.1239Z" fill="#5186F2"/>
<path d="M171.154 124.88C170.715 125.601 169.782 125.836 169.071 125.403C168.36 124.971 168.139 124.034 168.578 123.313C169.016 122.592 169.949 122.358 170.66 122.79C171.371 123.222 171.592 124.159 171.154 124.88Z" fill="#5186F2"/>
<path d="M229.786 128.351C229.854 129.246 229.194 130.027 228.311 130.095C227.429 130.162 226.657 129.49 226.589 128.595C226.52 127.7 227.181 126.919 228.063 126.851C228.945 126.784 229.717 127.456 229.786 128.351Z" fill="#5186F2"/>
<path d="M240.169 215.872C239.756 216.784 238.691 217.194 237.792 216.787C236.893 216.38 236.498 215.309 236.911 214.397C237.324 213.485 238.39 213.075 239.289 213.482C240.188 213.889 240.582 214.96 240.169 215.872Z" fill="#5186F2"/>
<path d="M65.4348 126.945C65.916 128.565 65.0096 130.266 63.412 130.74C61.8144 131.215 60.1266 130.284 59.6455 128.664C59.1643 127.044 60.0707 125.343 61.6683 124.868C63.2659 124.394 64.9537 125.324 65.4348 126.945Z" fill="#5186F2"/>
<path d="M161.022 257.253C159.462 257.905 157.674 257.186 157.032 255.648C156.389 254.11 157.134 252.333 158.694 251.681C160.253 251.029 162.041 251.749 162.684 253.287C163.326 254.824 162.582 256.602 161.022 257.253Z" fill="#5186F2"/>
<path d="M85.0277 101.336C84.401 102.72 82.7846 103.342 81.4205 102.724C80.0563 102.106 79.4576 100.481 80.0843 99.0972C80.711 97.7136 82.3274 97.0919 83.6915 97.7098C85.0557 98.3277 85.6544 99.9527 85.0277 101.336Z" fill="#5186F2"/>
<path d="M196.725 122.578C195.668 123.898 193.754 124.123 192.453 123.082C191.152 122.04 190.954 120.123 192.011 118.803C193.067 117.484 194.981 117.258 196.282 118.3C197.583 119.342 197.781 121.259 196.725 122.578Z" fill="#5186F2"/>
<path d="M173.321 197.095C171.935 198.064 170.035 197.741 169.081 196.375C168.126 195.009 168.476 193.114 169.861 192.145C171.247 191.177 173.147 191.5 174.102 192.866C175.056 194.232 174.706 196.127 173.321 197.095Z" fill="#5186F2"/>
<path d="M135.035 141.002L130.354 141.977L125.673 142.952L127.169 138.41L128.665 133.869L131.85 137.435L135.035 141.002Z" fill="#F1BD42"/>
<path d="M131.504 225.17L127.947 221.975L124.389 218.78L128.935 217.297L133.48 215.813L132.492 220.492L131.504 225.17Z" fill="#F1BD42"/>
<path d="M62.9002 104.915L59.0976 102.016L55.295 99.1163L59.7072 97.2728L64.1193 95.4293L63.5098 100.172L62.9002 104.915Z" fill="#F1BD42"/>
<path d="M147.511 72.677L142.889 71.4535L138.266 70.23L141.637 66.8384L145.008 63.4468L146.26 68.0619L147.511 72.677Z" fill="#F1BD42"/>
<path d="M236.153 81.2273L231.976 78.8986L227.8 76.5699L231.905 74.1173L236.009 71.6647L236.081 76.446L236.153 81.2273Z" fill="#F1BD42"/>
<path d="M78.4976 206.759L73.8541 207.901L69.2105 209.042L70.5437 204.45L71.8769 199.858L75.1872 203.309L78.4976 206.759Z" fill="#F1BD42"/>
<path d="M127.073 287.105L122.375 286.215L117.677 285.324L120.797 281.701L123.918 278.077L125.495 282.591L127.073 287.105Z" fill="#F1BD42"/>
<path d="M21.2504 272.178L18.0165 268.656L14.7826 265.133L19.4501 264.094L24.1176 263.055L22.684 267.617L21.2504 272.178Z" fill="#F1BD42"/>
<path d="M48.5075 167.563L51.2854 171.455L54.0634 175.347L49.3037 175.807L44.544 176.266L46.5257 171.914L48.5075 167.563Z" fill="#F1BD42"/>
<path d="M103.912 119.481L101.782 115.199L99.6525 110.918L104.425 111.214L109.198 111.511L106.555 115.496L103.912 119.481Z" fill="#F1BD42"/>
<path d="M38.2661 42.0194L33.5195 41.4401L28.7729 40.8607L31.6479 37.0397L34.5229 33.2187L36.3945 37.619L38.2661 42.0194Z" fill="#F1BD42"/>
<path d="M232.865 244.424L231.987 239.724L231.109 235.023L235.619 236.613L240.128 238.202L236.497 241.313L232.865 244.424Z" fill="#F1BD42"/>
<path d="M179.888 305.346L181.781 300.955L183.675 296.564L186.531 300.399L189.387 304.234L184.637 304.79L179.888 305.346Z" fill="#F1BD42"/>
<path d="M176.209 52.0726L171.446 52.4929L166.682 52.9131L168.7 48.5778L170.718 44.2426L173.463 48.1576L176.209 52.0726Z" fill="#F1BD42"/>
<path d="M234.751 121.715L229.972 121.893L225.194 122.071L227.429 117.844L229.664 113.617L232.208 117.666L234.751 121.715Z" fill="#F1BD42"/>
<path d="M101.799 84.292L97.4014 86.1705L93.004 88.049L93.5759 83.3015L94.1478 78.554L97.9733 81.423L101.799 84.292Z" fill="#F1BD42"/>
<path d="M56.4072 266.107L51.9046 264.497L47.402 262.887L51.0476 259.793L54.6933 256.699L55.5502 261.403L56.4072 266.107Z" fill="#F1BD42"/>
<path d="M231.405 192.537L229.993 187.968L228.581 183.4L233.243 184.461L237.906 185.523L234.655 189.03L231.405 192.537Z" fill="#F1BD42"/>
<path d="M93.5045 260.031L96.8475 259.416C96.8475 259.416 90.8638 254.964 92.1811 250.171C94.0613 243.33 90.2724 238.996 90.2724 238.996L86.7393 239.627C86.7393 239.627 88.924 243.321 87.9709 250.152C86.9778 257.271 93.5045 260.031 93.5045 260.031Z" fill="#58A55C"/>
<path d="M221.514 105.913L222.47 102.035C222.47 102.035 214.811 106.294 210.313 102.568C203.894 97.2495 197.422 99.2142 197.422 99.2142L196.391 103.303C196.391 103.303 201.403 102.748 208.259 107.068C215.404 111.57 221.514 105.913 221.514 105.913Z" fill="#58A55C"/>
<path d="M63.9707 115.654L66.6096 112.324C66.6096 112.324 57.3158 113.061 54.6103 107.468C50.7487 99.4846 43.6166 98.5255 43.6166 98.5255L40.8123 102.027C40.8123 102.027 45.908 103.704 50.6339 110.915C55.5587 118.429 63.9707 115.654 63.9707 115.654Z" fill="#58A55C"/>
<path d="M204.826 261.976L207.377 259.729C207.377 259.729 199.955 258.989 198.62 254.201C196.713 247.368 191.234 245.6 191.234 245.6L188.529 247.958C188.529 247.958 192.303 250.002 194.999 256.35C197.809 262.966 204.826 261.976 204.826 261.976Z" fill="#58A55C"/>
<path d="M144.579 178.588L147.922 177.973C147.922 177.973 141.938 173.521 143.256 168.728C145.136 161.887 141.347 157.553 141.347 157.553L137.814 158.184C137.814 158.184 139.998 161.878 139.045 168.709C138.052 175.827 144.579 178.588 144.579 178.588Z" fill="#58A55C"/>
<path d="M223.909 16.4893L224.604 13.1621C224.604 13.1621 218.219 17.017 214.281 13.9847C208.66 9.6565 203.214 11.5243 203.214 11.5243L202.462 15.0336C202.462 15.0336 206.708 14.4085 212.671 17.8748C218.885 21.4869 223.909 16.4893 223.909 16.4893Z" fill="#58A55C"/>
<path d="M260.557 196.384L262.371 193.509C262.371 193.509 255.041 194.89 252.411 190.673C248.657 184.653 242.902 184.5 242.902 184.5L240.971 187.526C240.971 187.526 245.167 188.424 249.543 193.755C254.103 199.311 260.557 196.384 260.557 196.384Z" fill="#58A55C"/>
<path d="M61.0911 325.328L64.1341 323.814C64.1341 323.814 57.153 321.188 57.0946 316.218C57.0112 309.124 52.1721 306.006 52.1721 306.006L48.951 307.589C48.951 307.589 52.0714 310.535 53.0431 317.363C54.0558 324.479 61.0911 325.328 61.0911 325.328Z" fill="#58A55C"/>
<path d="M127.983 275.751L131.351 273.161C131.351 273.161 122.156 271.621 120.888 265.538C119.079 256.857 112.392 254.196 112.392 254.196L108.822 256.913C108.822 256.913 113.359 259.776 116.194 267.918C119.149 276.403 127.983 275.751 127.983 275.751Z" fill="#58A55C"/>
<path d="M5.4562 336.901L9.56605 337.979C9.56605 337.979 5.15657 329.765 9.19073 325.04C14.9489 318.295 12.9609 311.379 12.9609 311.379L8.62732 310.219C8.62732 310.219 9.13967 315.559 4.43596 322.784C-0.465692 330.313 5.4562 336.901 5.4562 336.901Z" fill="#58A55C"/>
<path d="M230.828 130.047C230.828 130.047 233.439 130.048 234.244 132.712C234.95 135.048 236.018 134.952 236.018 134.952C236.018 134.952 237.589 131.639 239.698 129.787C241.298 128.382 243.735 128.325 243.735 128.325C243.735 128.325 242.318 128.212 240.672 125.163C240.165 124.224 239.862 122.412 239.862 122.412C239.862 122.412 236.845 123.704 234.834 125.265C232.823 126.827 230.828 130.047 230.828 130.047Z" fill="#D9503F"/>
<path d="M129.772 190.197C129.772 190.197 131.921 191.681 131.071 194.331C130.325 196.654 131.258 197.182 131.258 197.182C131.258 197.182 134.433 195.347 137.221 195.021C139.336 194.773 141.374 196.109 141.374 196.109C141.374 196.109 140.272 195.212 140.648 191.768C140.764 190.707 141.544 189.044 141.544 189.044C141.544 189.044 138.327 188.394 135.785 188.537C133.243 188.68 129.772 190.197 129.772 190.197Z" fill="#D9503F"/>
<path d="M86.4633 158.647C86.4633 158.647 88.9876 157.978 90.4487 160.347C91.7295 162.424 92.737 162.058 92.737 162.058C92.737 162.058 93.4067 158.454 94.9711 156.123C96.1578 154.355 98.4979 153.675 98.4979 153.675C98.4979 153.675 97.0995 153.929 94.727 151.404C93.9963 150.626 93.2397 148.952 93.2397 148.952C93.2397 148.952 90.6543 150.974 89.1106 152.998C87.5668 155.023 86.4633 158.647 86.4633 158.647Z" fill="#D9503F"/>
<path d="M5.7261 101.196C5.7261 101.196 8.11101 102.26 7.76149 105.021C7.45505 107.442 8.46916 107.789 8.46916 107.789C8.46916 107.789 11.253 105.404 13.9337 104.571C15.9673 103.939 18.216 104.879 18.216 104.879C18.216 104.879 16.9679 104.199 16.7057 100.744C16.6249 99.6801 17.0868 97.9018 17.0868 97.9018C17.0868 97.9018 13.8048 97.8533 11.3324 98.4603C8.86005 99.0673 5.7261 101.196 5.7261 101.196Z" fill="#D9503F"/>
<path d="M82.7657 52.1392C82.7657 52.1392 80.2256 51.5331 80.0605 48.7545C79.9157 46.3188 78.855 46.1643 78.855 46.1643C78.855 46.1643 76.5583 49.022 74.0768 50.3341C72.1944 51.3296 69.8112 50.8206 69.8112 50.8206C69.8112 50.8206 71.1632 51.259 72.0573 54.6063C72.3327 55.6372 72.2063 57.4702 72.2063 57.4702C72.2063 57.4702 75.441 56.9132 77.7593 55.8611C80.0776 54.809 82.7657 52.1392 82.7657 52.1392Z" fill="#D9503F"/>
<path d="M34.3999 171.803C34.3999 171.803 33.805 169.261 36.2157 167.869C38.329 166.65 37.9925 165.632 37.9925 165.632C37.9925 165.632 34.4089 164.857 32.1249 163.225C30.3922 161.988 29.7806 159.629 29.7806 159.629C29.7806 159.629 29.9937 161.034 27.4007 163.332C26.602 164.039 24.9064 164.747 24.9064 164.747C24.9064 164.747 26.8523 167.39 28.8308 168.992C30.8092 170.595 34.3999 171.803 34.3999 171.803Z" fill="#D9503F"/>
<path d="M77.0052 183.99C77.0052 183.99 76.4103 181.447 78.8211 180.056C80.9344 178.836 80.5978 177.819 80.5978 177.819C80.5978 177.819 77.0143 177.044 74.7302 175.412C72.9975 174.175 72.3859 171.816 72.3859 171.816C72.3859 171.816 72.5991 173.221 70.006 175.519C69.2074 176.226 67.5117 176.934 67.5117 176.934C67.5117 176.934 69.4577 179.577 71.4361 181.179C73.4146 182.781 77.0052 183.99 77.0052 183.99Z" fill="#D9503F"/>
<path d="M146.767 183.397C146.767 183.397 144.158 183.494 143.253 180.862C142.46 178.554 141.397 178.69 141.397 178.69C141.397 178.69 139.951 182.059 137.913 183.989C136.366 185.453 133.934 185.602 133.934 185.602C133.934 185.602 135.354 185.662 137.113 188.646C137.655 189.566 138.025 191.365 138.025 191.365C138.025 191.365 140.992 189.961 142.943 188.326C144.894 186.69 146.767 183.397 146.767 183.397Z" fill="#D9503F"/>
<path d="M160.706 206.313C160.706 206.313 160.111 203.77 162.522 202.379C164.635 201.159 164.298 200.142 164.298 200.142C164.298 200.142 160.715 199.367 158.431 197.735C156.698 196.498 156.086 194.139 156.086 194.139C156.086 194.139 156.3 195.544 153.707 197.842C152.908 198.549 151.212 199.257 151.212 199.257C151.212 199.257 153.158 201.9 155.137 203.502C157.115 205.104 160.706 206.313 160.706 206.313Z" fill="#D9503F"/>
<path d="M187.789 127.45C187.789 127.45 186.267 125.328 187.962 123.12C189.447 121.185 188.747 120.373 188.747 120.373C188.747 120.373 185.14 121.029 182.405 120.395C180.331 119.915 178.863 117.969 178.863 117.969C178.863 117.969 179.597 119.186 178.081 122.301C177.614 123.261 176.318 124.563 176.318 124.563C176.318 124.563 179.127 126.261 181.568 126.984C184.009 127.707 187.789 127.45 187.789 127.45Z" fill="#D9503F"/>
<path d="M45.2255 102.265C45.2255 102.265 42.622 102.063 42.0248 99.3441C41.5013 96.9608 40.4294 96.9739 40.4294 96.9739C40.4294 96.9739 38.6074 100.155 36.3613 101.839C34.6576 103.116 32.2241 102.986 32.2241 102.986C32.2241 102.986 33.628 103.208 35.0341 106.374C35.4671 107.349 35.6286 109.18 35.6286 109.18C35.6286 109.18 38.7366 108.124 40.8621 106.723C42.9875 105.322 45.2255 102.265 45.2255 102.265Z" fill="#D9503F"/>
<path d="M171.128 169.557C171.128 169.557 168.817 168.342 169.344 165.609C169.807 163.213 168.817 162.801 168.817 162.801C168.817 162.801 165.885 165.002 163.156 165.659C161.086 166.158 158.902 165.075 158.902 165.075C158.902 165.075 160.104 165.835 160.142 169.299C160.154 170.366 159.578 172.111 159.578 172.111C159.578 172.111 162.85 172.371 165.357 171.925C167.863 171.479 171.128 169.557 171.128 169.557Z" fill="#D9503F"/>
<path d="M201.305 188.547C201.305 188.547 199.354 190.283 196.981 188.828C194.901 187.553 194.167 188.334 194.167 188.334C194.167 188.334 195.196 191.853 194.852 194.639C194.591 196.753 192.809 198.416 192.809 198.416C192.809 198.416 193.943 197.558 197.199 198.74C198.202 199.104 199.633 200.257 199.633 200.257C199.633 200.257 201.027 197.286 201.492 194.783C201.956 192.279 201.305 188.547 201.305 188.547Z" fill="#D9503F"/>
<path d="M220.639 270.631C220.639 270.631 220.087 268.079 222.521 266.728C224.654 265.544 224.334 264.521 224.334 264.521C224.334 264.521 220.764 263.686 218.508 262.017C216.796 260.75 216.224 258.381 216.224 258.381C216.224 258.381 216.413 259.79 213.782 262.044C212.972 262.739 211.265 263.418 211.265 263.418C211.265 263.418 213.166 266.093 215.118 267.728C217.069 269.363 220.639 270.631 220.639 270.631Z" fill="#D9503F"/>
<path d="M248.361 190.439C248.361 190.439 247.766 187.896 250.177 186.505C252.29 185.285 251.953 184.267 251.953 184.267C251.953 184.267 248.37 183.493 246.086 181.861C244.353 180.623 243.741 178.264 243.741 178.264C243.741 178.264 243.955 179.669 241.362 181.967C240.563 182.675 238.867 183.382 238.867 183.382C238.867 183.382 240.813 186.025 242.792 187.628C244.77 189.23 248.361 190.439 248.361 190.439Z" fill="#D9503F"/>
<path d="M110.376 114.194C110.376 114.194 107.944 115.145 106.224 112.957C104.716 111.039 103.756 111.517 103.756 111.517C103.756 111.517 103.5 115.174 102.209 117.667C101.231 119.558 98.983 120.499 98.983 120.499C98.983 120.499 100.344 120.088 102.987 122.328C103.801 123.018 104.743 124.595 104.743 124.595C104.743 124.595 107.082 122.293 108.386 120.107C109.691 117.92 110.376 114.194 110.376 114.194Z" fill="#D9503F"/>
<path d="M79.8744 160.307C79.8744 160.307 77.7063 158.852 78.5226 156.191C79.2381 153.858 78.2983 153.342 78.2983 153.342C78.2983 153.342 75.1477 155.217 72.3641 155.58C70.2526 155.854 68.1975 154.545 68.1975 154.545C68.1975 154.545 69.311 155.428 68.979 158.877C68.8768 159.939 68.1177 161.612 68.1177 161.612C68.1177 161.612 71.3432 162.221 73.8829 162.045C76.4227 161.869 79.8744 160.307 79.8744 160.307Z" fill="#D9503F"/>
<path d="M41.31 143.337C41.31 143.337 38.75 142.822 38.4858 140.051C38.2542 137.622 37.1887 137.505 37.1887 137.505C37.1887 137.505 34.9954 140.443 32.5623 141.843C30.7166 142.905 28.3167 142.481 28.3167 142.481C28.3167 142.481 29.6835 142.871 30.6965 146.184C31.0085 147.205 30.9475 149.041 30.9475 149.041C30.9475 149.041 34.1603 148.369 36.4396 147.235C38.7188 146.101 41.31 143.337 41.31 143.337Z" fill="#D9503F"/>
<path d="M49.1667 247.565C49.1667 247.565 47.2279 245.816 48.4145 243.298C49.4548 241.091 48.5979 240.447 48.5979 240.447C48.5979 240.447 45.2126 241.854 42.4058 241.816C40.2766 241.788 38.4288 240.199 38.4288 240.199C38.4288 240.199 39.4053 241.232 38.5859 244.598C38.3335 245.635 37.3441 247.183 37.3441 247.183C37.3441 247.183 40.4501 248.245 42.989 248.432C45.5279 248.62 49.1667 247.565 49.1667 247.565Z" fill="#D9503F"/>
<path d="M40.6115 328.478C40.6115 328.478 40.0166 325.935 42.4274 324.544C44.5407 323.324 44.2041 322.306 44.2041 322.306C44.2041 322.306 40.6206 321.532 38.3366 319.9C36.6039 318.662 35.9922 316.303 35.9922 316.303C35.9922 316.303 36.2054 317.709 33.6124 320.006C32.8137 320.714 31.118 321.421 31.118 321.421C31.118 321.421 33.064 324.065 35.0424 325.667C37.0209 327.269 40.6115 328.478 40.6115 328.478Z" fill="#D9503F"/>
<path d="M155.874 331.239C155.874 331.239 155.28 328.696 157.69 327.305C159.804 326.085 159.467 325.067 159.467 325.067C159.467 325.067 155.884 324.293 153.599 322.661C151.867 321.423 151.255 319.064 151.255 319.064C151.255 319.064 151.468 320.469 148.875 322.767C148.077 323.475 146.381 324.182 146.381 324.182C146.381 324.182 148.327 326.826 150.305 328.428C152.284 330.03 155.874 331.239 155.874 331.239Z" fill="#D9503F"/>
<path d="M63.5321 201.791C63.5321 201.791 66.1416 201.692 67.0474 204.324C67.8414 206.631 68.9046 206.495 68.9046 206.495C68.9046 206.495 70.3488 203.125 72.3864 201.194C73.9321 199.729 76.3644 199.579 76.3644 199.579C76.3644 199.579 74.9443 199.52 73.1835 196.536C72.6412 195.617 72.2703 193.818 72.2703 193.818C72.2703 193.818 69.3043 195.224 67.354 196.86C65.4038 198.497 63.5321 201.791 63.5321 201.791Z" fill="#D9503F"/>
<path d="M71.941 192.266C71.941 192.266 73.5752 190.229 76.1575 191.268C78.4211 192.179 79.0145 191.286 79.0145 191.286C79.0145 191.286 77.4135 187.988 77.2888 185.184C77.1941 183.056 78.6735 181.12 78.6735 181.12C78.6735 181.12 77.699 182.154 74.2909 181.531C73.2412 181.339 71.6384 180.441 71.6384 180.441C71.6384 180.441 70.7584 183.603 70.7179 186.148C70.6774 188.694 71.941 192.266 71.941 192.266Z" fill="#D9503F"/>
<path d="M239.372 261.733C239.372 261.733 241.982 261.634 242.888 264.266C243.682 266.573 244.745 266.437 244.745 266.437C244.745 266.437 246.189 263.067 248.227 261.137C249.772 259.672 252.205 259.522 252.205 259.522C252.205 259.522 250.785 259.463 249.024 256.479C248.481 255.56 248.111 253.76 248.111 253.76C248.111 253.76 245.145 255.166 243.194 256.803C241.244 258.439 239.372 261.733 239.372 261.733Z" fill="#D9503F"/>
<path d="M160.484 249.872C160.484 249.872 158.814 247.864 160.347 245.541C161.691 243.505 160.934 242.745 160.934 242.745C160.934 242.745 157.383 243.656 154.61 243.22C152.507 242.888 150.904 241.053 150.904 241.053C150.904 241.053 151.724 242.214 150.433 245.429C150.036 246.42 148.836 247.811 148.836 247.811C148.836 247.811 151.759 249.304 154.246 249.851C156.732 250.398 160.484 249.872 160.484 249.872Z" fill="#D9503F"/>
<path d="M193.582 322.546C193.582 322.546 192.545 320.149 194.67 318.352C196.534 316.776 196.022 315.834 196.022 315.834C196.022 315.834 192.358 315.708 189.82 314.508C187.895 313.597 186.874 311.384 186.874 311.384C186.874 311.384 187.334 312.73 185.19 315.451C184.529 316.289 182.986 317.287 182.986 317.287C182.986 317.287 185.371 319.542 187.602 320.768C189.834 321.993 193.582 322.546 193.582 322.546Z" fill="#D9503F"/>
<path d="M145.325 230.134C145.325 230.134 146.863 228.024 149.491 228.943C151.794 229.748 152.346 228.829 152.346 228.829C152.346 228.829 150.594 225.608 150.34 222.813C150.147 220.692 151.536 218.689 151.536 218.689C151.536 218.689 150.61 219.768 147.177 219.302C146.119 219.159 144.477 218.336 144.477 218.336C144.477 218.336 143.744 221.535 143.821 224.08C143.898 226.624 145.325 230.134 145.325 230.134Z" fill="#D9503F"/>
</svg>
